G04 #@! TF.GenerationSoftware,KiCad,Pcbnew,5.1.10*
G04 #@! TF.CreationDate,2021-07-11T12:57:33+02:00*
G04 #@! TF.ProjectId,a500_pwr,61353030-5f70-4777-922e-6b696361645f,rev?*
G04 #@! TF.SameCoordinates,Original*
G04 #@! TF.FileFunction,Soldermask,Top*
G04 #@! TF.FilePolarity,Negative*
%FSLAX46Y46*%
G04 Gerber Fmt 4.6, Leading zero omitted, Abs format (unit mm)*
G04 Created by KiCad (PCBNEW 5.1.10) date 2021-07-11 12:57:33*
%MOMM*%
%LPD*%
G01*
G04 APERTURE LIST*
%ADD10C,1.802000*%
%ADD11C,1.702000*%
%ADD12C,3.277000*%
%ADD13C,0.100000*%
G04 APERTURE END LIST*
G36*
G01*
X56449000Y-115692600D02*
X56449000Y-111492600D01*
G75*
G02*
X56500000Y-111441600I51000J0D01*
G01*
X58500000Y-111441600D01*
G75*
G02*
X58551000Y-111492600I0J-51000D01*
G01*
X58551000Y-115692600D01*
G75*
G02*
X58500000Y-115743600I-51000J0D01*
G01*
X56500000Y-115743600D01*
G75*
G02*
X56449000Y-115692600I0J51000D01*
G01*
G37*
G36*
G01*
X60049000Y-117592600D02*
X60049000Y-115592600D01*
G75*
G02*
X60100000Y-115541600I51000J0D01*
G01*
X64300000Y-115541600D01*
G75*
G02*
X64351000Y-115592600I0J-51000D01*
G01*
X64351000Y-117592600D01*
G75*
G02*
X64300000Y-117643600I-51000J0D01*
G01*
X60100000Y-117643600D01*
G75*
G02*
X60049000Y-117592600I0J51000D01*
G01*
G37*
G36*
G01*
X60049000Y-111592600D02*
X60049000Y-109592600D01*
G75*
G02*
X60100000Y-109541600I51000J0D01*
G01*
X64300000Y-109541600D01*
G75*
G02*
X64351000Y-109592600I0J-51000D01*
G01*
X64351000Y-111592600D01*
G75*
G02*
X64300000Y-111643600I-51000J0D01*
G01*
X60100000Y-111643600D01*
G75*
G02*
X60049000Y-111592600I0J51000D01*
G01*
G37*
D10*
X71600000Y-123420000D03*
X71600000Y-120880000D03*
X71600000Y-118340000D03*
X71600000Y-113260000D03*
D11*
X58222000Y-127508000D03*
G36*
G01*
X62573000Y-126708000D02*
X62573000Y-128308000D01*
G75*
G02*
X62522000Y-128359000I-51000J0D01*
G01*
X60922000Y-128359000D01*
G75*
G02*
X60871000Y-128308000I0J51000D01*
G01*
X60871000Y-126708000D01*
G75*
G02*
X60922000Y-126657000I51000J0D01*
G01*
X62522000Y-126657000D01*
G75*
G02*
X62573000Y-126708000I0J-51000D01*
G01*
G37*
G36*
G01*
X80216400Y-144949400D02*
X81686400Y-144949400D01*
G75*
G02*
X81737400Y-145000400I0J-51000D01*
G01*
X81737400Y-148000400D01*
G75*
G02*
X81686400Y-148051400I-51000J0D01*
G01*
X80216400Y-148051400D01*
G75*
G02*
X80165400Y-148000400I0J51000D01*
G01*
X80165400Y-145000400D01*
G75*
G02*
X80216400Y-144949400I51000J0D01*
G01*
G37*
G36*
G01*
X80216400Y-137649400D02*
X81686400Y-137649400D01*
G75*
G02*
X81737400Y-137700400I0J-51000D01*
G01*
X81737400Y-140700400D01*
G75*
G02*
X81686400Y-140751400I-51000J0D01*
G01*
X80216400Y-140751400D01*
G75*
G02*
X80165400Y-140700400I0J51000D01*
G01*
X80165400Y-137700400D01*
G75*
G02*
X80216400Y-137649400I51000J0D01*
G01*
G37*
G36*
G01*
X59067600Y-147920400D02*
X57467600Y-147920400D01*
G75*
G02*
X57416600Y-147869400I0J51000D01*
G01*
X57416600Y-145869400D01*
G75*
G02*
X57467600Y-145818400I51000J0D01*
G01*
X59067600Y-145818400D01*
G75*
G02*
X59118600Y-145869400I0J-51000D01*
G01*
X59118600Y-147869400D01*
G75*
G02*
X59067600Y-147920400I-51000J0D01*
G01*
G37*
G36*
G01*
X59067600Y-151920400D02*
X57467600Y-151920400D01*
G75*
G02*
X57416600Y-151869400I0J51000D01*
G01*
X57416600Y-149869400D01*
G75*
G02*
X57467600Y-149818400I51000J0D01*
G01*
X59067600Y-149818400D01*
G75*
G02*
X59118600Y-149869400I0J-51000D01*
G01*
X59118600Y-151869400D01*
G75*
G02*
X59067600Y-151920400I-51000J0D01*
G01*
G37*
G36*
G01*
X82410200Y-132375600D02*
X80810200Y-132375600D01*
G75*
G02*
X80759200Y-132324600I0J51000D01*
G01*
X80759200Y-130324600D01*
G75*
G02*
X80810200Y-130273600I51000J0D01*
G01*
X82410200Y-130273600D01*
G75*
G02*
X82461200Y-130324600I0J-51000D01*
G01*
X82461200Y-132324600D01*
G75*
G02*
X82410200Y-132375600I-51000J0D01*
G01*
G37*
G36*
G01*
X82410200Y-136375600D02*
X80810200Y-136375600D01*
G75*
G02*
X80759200Y-136324600I0J51000D01*
G01*
X80759200Y-134324600D01*
G75*
G02*
X80810200Y-134273600I51000J0D01*
G01*
X82410200Y-134273600D01*
G75*
G02*
X82461200Y-134324600I0J-51000D01*
G01*
X82461200Y-136324600D01*
G75*
G02*
X82410200Y-136375600I-51000J0D01*
G01*
G37*
G36*
G01*
X74056800Y-150582000D02*
X74056800Y-149522000D01*
G75*
G02*
X74107800Y-149471000I51000J0D01*
G01*
X75167800Y-149471000D01*
G75*
G02*
X75218800Y-149522000I0J-51000D01*
G01*
X75218800Y-150582000D01*
G75*
G02*
X75167800Y-150633000I-51000J0D01*
G01*
X74107800Y-150633000D01*
G75*
G02*
X74056800Y-150582000I0J51000D01*
G01*
G37*
G36*
G01*
X74056800Y-148292000D02*
X74056800Y-147232000D01*
G75*
G02*
X74107800Y-147181000I51000J0D01*
G01*
X75167800Y-147181000D01*
G75*
G02*
X75218800Y-147232000I0J-51000D01*
G01*
X75218800Y-148292000D01*
G75*
G02*
X75167800Y-148343000I-51000J0D01*
G01*
X74107800Y-148343000D01*
G75*
G02*
X74056800Y-148292000I0J51000D01*
G01*
G37*
G36*
G01*
X74056800Y-146002000D02*
X74056800Y-144942000D01*
G75*
G02*
X74107800Y-144891000I51000J0D01*
G01*
X75167800Y-144891000D01*
G75*
G02*
X75218800Y-144942000I0J-51000D01*
G01*
X75218800Y-146002000D01*
G75*
G02*
X75167800Y-146053000I-51000J0D01*
G01*
X74107800Y-146053000D01*
G75*
G02*
X74056800Y-146002000I0J51000D01*
G01*
G37*
G36*
G01*
X74056800Y-143712000D02*
X74056800Y-142652000D01*
G75*
G02*
X74107800Y-142601000I51000J0D01*
G01*
X75167800Y-142601000D01*
G75*
G02*
X75218800Y-142652000I0J-51000D01*
G01*
X75218800Y-143712000D01*
G75*
G02*
X75167800Y-143763000I-51000J0D01*
G01*
X74107800Y-143763000D01*
G75*
G02*
X74056800Y-143712000I0J51000D01*
G01*
G37*
G36*
G01*
X74056800Y-141422000D02*
X74056800Y-140362000D01*
G75*
G02*
X74107800Y-140311000I51000J0D01*
G01*
X75167800Y-140311000D01*
G75*
G02*
X75218800Y-140362000I0J-51000D01*
G01*
X75218800Y-141422000D01*
G75*
G02*
X75167800Y-141473000I-51000J0D01*
G01*
X74107800Y-141473000D01*
G75*
G02*
X74056800Y-141422000I0J51000D01*
G01*
G37*
G36*
G01*
X71766800Y-150582000D02*
X71766800Y-149522000D01*
G75*
G02*
X71817800Y-149471000I51000J0D01*
G01*
X72877800Y-149471000D01*
G75*
G02*
X72928800Y-149522000I0J-51000D01*
G01*
X72928800Y-150582000D01*
G75*
G02*
X72877800Y-150633000I-51000J0D01*
G01*
X71817800Y-150633000D01*
G75*
G02*
X71766800Y-150582000I0J51000D01*
G01*
G37*
G36*
G01*
X71766800Y-148292000D02*
X71766800Y-147232000D01*
G75*
G02*
X71817800Y-147181000I51000J0D01*
G01*
X72877800Y-147181000D01*
G75*
G02*
X72928800Y-147232000I0J-51000D01*
G01*
X72928800Y-148292000D01*
G75*
G02*
X72877800Y-148343000I-51000J0D01*
G01*
X71817800Y-148343000D01*
G75*
G02*
X71766800Y-148292000I0J51000D01*
G01*
G37*
G36*
G01*
X71766800Y-146002000D02*
X71766800Y-144942000D01*
G75*
G02*
X71817800Y-144891000I51000J0D01*
G01*
X72877800Y-144891000D01*
G75*
G02*
X72928800Y-144942000I0J-51000D01*
G01*
X72928800Y-146002000D01*
G75*
G02*
X72877800Y-146053000I-51000J0D01*
G01*
X71817800Y-146053000D01*
G75*
G02*
X71766800Y-146002000I0J51000D01*
G01*
G37*
G36*
G01*
X71766800Y-143712000D02*
X71766800Y-142652000D01*
G75*
G02*
X71817800Y-142601000I51000J0D01*
G01*
X72877800Y-142601000D01*
G75*
G02*
X72928800Y-142652000I0J-51000D01*
G01*
X72928800Y-143712000D01*
G75*
G02*
X72877800Y-143763000I-51000J0D01*
G01*
X71817800Y-143763000D01*
G75*
G02*
X71766800Y-143712000I0J51000D01*
G01*
G37*
G36*
G01*
X71766800Y-141422000D02*
X71766800Y-140362000D01*
G75*
G02*
X71817800Y-140311000I51000J0D01*
G01*
X72877800Y-140311000D01*
G75*
G02*
X72928800Y-140362000I0J-51000D01*
G01*
X72928800Y-141422000D01*
G75*
G02*
X72877800Y-141473000I-51000J0D01*
G01*
X71817800Y-141473000D01*
G75*
G02*
X71766800Y-141422000I0J51000D01*
G01*
G37*
G36*
G01*
X69476800Y-150582000D02*
X69476800Y-149522000D01*
G75*
G02*
X69527800Y-149471000I51000J0D01*
G01*
X70587800Y-149471000D01*
G75*
G02*
X70638800Y-149522000I0J-51000D01*
G01*
X70638800Y-150582000D01*
G75*
G02*
X70587800Y-150633000I-51000J0D01*
G01*
X69527800Y-150633000D01*
G75*
G02*
X69476800Y-150582000I0J51000D01*
G01*
G37*
G36*
G01*
X69476800Y-148292000D02*
X69476800Y-147232000D01*
G75*
G02*
X69527800Y-147181000I51000J0D01*
G01*
X70587800Y-147181000D01*
G75*
G02*
X70638800Y-147232000I0J-51000D01*
G01*
X70638800Y-148292000D01*
G75*
G02*
X70587800Y-148343000I-51000J0D01*
G01*
X69527800Y-148343000D01*
G75*
G02*
X69476800Y-148292000I0J51000D01*
G01*
G37*
G36*
G01*
X69476800Y-146002000D02*
X69476800Y-144942000D01*
G75*
G02*
X69527800Y-144891000I51000J0D01*
G01*
X70587800Y-144891000D01*
G75*
G02*
X70638800Y-144942000I0J-51000D01*
G01*
X70638800Y-146002000D01*
G75*
G02*
X70587800Y-146053000I-51000J0D01*
G01*
X69527800Y-146053000D01*
G75*
G02*
X69476800Y-146002000I0J51000D01*
G01*
G37*
G36*
G01*
X69476800Y-143712000D02*
X69476800Y-142652000D01*
G75*
G02*
X69527800Y-142601000I51000J0D01*
G01*
X70587800Y-142601000D01*
G75*
G02*
X70638800Y-142652000I0J-51000D01*
G01*
X70638800Y-143712000D01*
G75*
G02*
X70587800Y-143763000I-51000J0D01*
G01*
X69527800Y-143763000D01*
G75*
G02*
X69476800Y-143712000I0J51000D01*
G01*
G37*
G36*
G01*
X69476800Y-141422000D02*
X69476800Y-140362000D01*
G75*
G02*
X69527800Y-140311000I51000J0D01*
G01*
X70587800Y-140311000D01*
G75*
G02*
X70638800Y-140362000I0J-51000D01*
G01*
X70638800Y-141422000D01*
G75*
G02*
X70587800Y-141473000I-51000J0D01*
G01*
X69527800Y-141473000D01*
G75*
G02*
X69476800Y-141422000I0J51000D01*
G01*
G37*
G36*
G01*
X67186800Y-150582000D02*
X67186800Y-149522000D01*
G75*
G02*
X67237800Y-149471000I51000J0D01*
G01*
X68297800Y-149471000D01*
G75*
G02*
X68348800Y-149522000I0J-51000D01*
G01*
X68348800Y-150582000D01*
G75*
G02*
X68297800Y-150633000I-51000J0D01*
G01*
X67237800Y-150633000D01*
G75*
G02*
X67186800Y-150582000I0J51000D01*
G01*
G37*
G36*
G01*
X67186800Y-148292000D02*
X67186800Y-147232000D01*
G75*
G02*
X67237800Y-147181000I51000J0D01*
G01*
X68297800Y-147181000D01*
G75*
G02*
X68348800Y-147232000I0J-51000D01*
G01*
X68348800Y-148292000D01*
G75*
G02*
X68297800Y-148343000I-51000J0D01*
G01*
X67237800Y-148343000D01*
G75*
G02*
X67186800Y-148292000I0J51000D01*
G01*
G37*
G36*
G01*
X67186800Y-146002000D02*
X67186800Y-144942000D01*
G75*
G02*
X67237800Y-144891000I51000J0D01*
G01*
X68297800Y-144891000D01*
G75*
G02*
X68348800Y-144942000I0J-51000D01*
G01*
X68348800Y-146002000D01*
G75*
G02*
X68297800Y-146053000I-51000J0D01*
G01*
X67237800Y-146053000D01*
G75*
G02*
X67186800Y-146002000I0J51000D01*
G01*
G37*
G36*
G01*
X67186800Y-143712000D02*
X67186800Y-142652000D01*
G75*
G02*
X67237800Y-142601000I51000J0D01*
G01*
X68297800Y-142601000D01*
G75*
G02*
X68348800Y-142652000I0J-51000D01*
G01*
X68348800Y-143712000D01*
G75*
G02*
X68297800Y-143763000I-51000J0D01*
G01*
X67237800Y-143763000D01*
G75*
G02*
X67186800Y-143712000I0J51000D01*
G01*
G37*
G36*
G01*
X67186800Y-141422000D02*
X67186800Y-140362000D01*
G75*
G02*
X67237800Y-140311000I51000J0D01*
G01*
X68297800Y-140311000D01*
G75*
G02*
X68348800Y-140362000I0J-51000D01*
G01*
X68348800Y-141422000D01*
G75*
G02*
X68297800Y-141473000I-51000J0D01*
G01*
X67237800Y-141473000D01*
G75*
G02*
X67186800Y-141422000I0J51000D01*
G01*
G37*
G36*
G01*
X64896800Y-150582000D02*
X64896800Y-149522000D01*
G75*
G02*
X64947800Y-149471000I51000J0D01*
G01*
X66007800Y-149471000D01*
G75*
G02*
X66058800Y-149522000I0J-51000D01*
G01*
X66058800Y-150582000D01*
G75*
G02*
X66007800Y-150633000I-51000J0D01*
G01*
X64947800Y-150633000D01*
G75*
G02*
X64896800Y-150582000I0J51000D01*
G01*
G37*
G36*
G01*
X64896800Y-148292000D02*
X64896800Y-147232000D01*
G75*
G02*
X64947800Y-147181000I51000J0D01*
G01*
X66007800Y-147181000D01*
G75*
G02*
X66058800Y-147232000I0J-51000D01*
G01*
X66058800Y-148292000D01*
G75*
G02*
X66007800Y-148343000I-51000J0D01*
G01*
X64947800Y-148343000D01*
G75*
G02*
X64896800Y-148292000I0J51000D01*
G01*
G37*
G36*
G01*
X64896800Y-146002000D02*
X64896800Y-144942000D01*
G75*
G02*
X64947800Y-144891000I51000J0D01*
G01*
X66007800Y-144891000D01*
G75*
G02*
X66058800Y-144942000I0J-51000D01*
G01*
X66058800Y-146002000D01*
G75*
G02*
X66007800Y-146053000I-51000J0D01*
G01*
X64947800Y-146053000D01*
G75*
G02*
X64896800Y-146002000I0J51000D01*
G01*
G37*
G36*
G01*
X64896800Y-143712000D02*
X64896800Y-142652000D01*
G75*
G02*
X64947800Y-142601000I51000J0D01*
G01*
X66007800Y-142601000D01*
G75*
G02*
X66058800Y-142652000I0J-51000D01*
G01*
X66058800Y-143712000D01*
G75*
G02*
X66007800Y-143763000I-51000J0D01*
G01*
X64947800Y-143763000D01*
G75*
G02*
X64896800Y-143712000I0J51000D01*
G01*
G37*
G36*
G01*
X64896800Y-141422000D02*
X64896800Y-140362000D01*
G75*
G02*
X64947800Y-140311000I51000J0D01*
G01*
X66007800Y-140311000D01*
G75*
G02*
X66058800Y-140362000I0J-51000D01*
G01*
X66058800Y-141422000D01*
G75*
G02*
X66007800Y-141473000I-51000J0D01*
G01*
X64947800Y-141473000D01*
G75*
G02*
X64896800Y-141422000I0J51000D01*
G01*
G37*
G36*
G01*
X77145800Y-150489200D02*
X77895800Y-150489200D01*
G75*
G02*
X77946800Y-150540200I0J-51000D01*
G01*
X77946800Y-151740200D01*
G75*
G02*
X77895800Y-151791200I-51000J0D01*
G01*
X77145800Y-151791200D01*
G75*
G02*
X77094800Y-151740200I0J51000D01*
G01*
X77094800Y-150540200D01*
G75*
G02*
X77145800Y-150489200I51000J0D01*
G01*
G37*
G36*
G01*
X77145800Y-148589200D02*
X77895800Y-148589200D01*
G75*
G02*
X77946800Y-148640200I0J-51000D01*
G01*
X77946800Y-149840200D01*
G75*
G02*
X77895800Y-149891200I-51000J0D01*
G01*
X77145800Y-149891200D01*
G75*
G02*
X77094800Y-149840200I0J51000D01*
G01*
X77094800Y-148640200D01*
G75*
G02*
X77145800Y-148589200I51000J0D01*
G01*
G37*
G36*
G01*
X79597600Y-149891200D02*
X78847600Y-149891200D01*
G75*
G02*
X78796600Y-149840200I0J51000D01*
G01*
X78796600Y-148640200D01*
G75*
G02*
X78847600Y-148589200I51000J0D01*
G01*
X79597600Y-148589200D01*
G75*
G02*
X79648600Y-148640200I0J-51000D01*
G01*
X79648600Y-149840200D01*
G75*
G02*
X79597600Y-149891200I-51000J0D01*
G01*
G37*
G36*
G01*
X79597600Y-151791200D02*
X78847600Y-151791200D01*
G75*
G02*
X78796600Y-151740200I0J51000D01*
G01*
X78796600Y-150540200D01*
G75*
G02*
X78847600Y-150489200I51000J0D01*
G01*
X79597600Y-150489200D01*
G75*
G02*
X79648600Y-150540200I0J-51000D01*
G01*
X79648600Y-151740200D01*
G75*
G02*
X79597600Y-151791200I-51000J0D01*
G01*
G37*
G36*
G01*
X60069600Y-149170600D02*
X63069600Y-149170600D01*
G75*
G02*
X63120600Y-149221600I0J-51000D01*
G01*
X63120600Y-151421600D01*
G75*
G02*
X63069600Y-151472600I-51000J0D01*
G01*
X60069600Y-151472600D01*
G75*
G02*
X60018600Y-151421600I0J51000D01*
G01*
X60018600Y-149221600D01*
G75*
G02*
X60069600Y-149170600I51000J0D01*
G01*
G37*
G36*
G01*
X60069600Y-143370600D02*
X63069600Y-143370600D01*
G75*
G02*
X63120600Y-143421600I0J-51000D01*
G01*
X63120600Y-145621600D01*
G75*
G02*
X63069600Y-145672600I-51000J0D01*
G01*
X60069600Y-145672600D01*
G75*
G02*
X60018600Y-145621600I0J51000D01*
G01*
X60018600Y-143421600D01*
G75*
G02*
X60069600Y-143370600I51000J0D01*
G01*
G37*
G36*
G01*
X73451800Y-127365000D02*
X73451800Y-127765000D01*
G75*
G02*
X73350200Y-127866600I-101600J0D01*
G01*
X72600200Y-127866600D01*
G75*
G02*
X72498600Y-127765000I0J101600D01*
G01*
X72498600Y-127365000D01*
G75*
G02*
X72600200Y-127263400I101600J0D01*
G01*
X73350200Y-127263400D01*
G75*
G02*
X73451800Y-127365000I0J-101600D01*
G01*
G37*
G36*
G01*
X73451800Y-126765000D02*
X73451800Y-127165000D01*
G75*
G02*
X73350200Y-127266600I-101600J0D01*
G01*
X72600200Y-127266600D01*
G75*
G02*
X72498600Y-127165000I0J101600D01*
G01*
X72498600Y-126765000D01*
G75*
G02*
X72600200Y-126663400I101600J0D01*
G01*
X73350200Y-126663400D01*
G75*
G02*
X73451800Y-126765000I0J-101600D01*
G01*
G37*
G36*
G01*
X73451800Y-126165000D02*
X73451800Y-126565000D01*
G75*
G02*
X73350200Y-126666600I-101600J0D01*
G01*
X72600200Y-126666600D01*
G75*
G02*
X72498600Y-126565000I0J101600D01*
G01*
X72498600Y-126165000D01*
G75*
G02*
X72600200Y-126063400I101600J0D01*
G01*
X73350200Y-126063400D01*
G75*
G02*
X73451800Y-126165000I0J-101600D01*
G01*
G37*
G36*
G01*
X73451800Y-125565000D02*
X73451800Y-125965000D01*
G75*
G02*
X73350200Y-126066600I-101600J0D01*
G01*
X72600200Y-126066600D01*
G75*
G02*
X72498600Y-125965000I0J101600D01*
G01*
X72498600Y-125565000D01*
G75*
G02*
X72600200Y-125463400I101600J0D01*
G01*
X73350200Y-125463400D01*
G75*
G02*
X73451800Y-125565000I0J-101600D01*
G01*
G37*
G36*
G01*
X73451800Y-124965000D02*
X73451800Y-125365000D01*
G75*
G02*
X73350200Y-125466600I-101600J0D01*
G01*
X72600200Y-125466600D01*
G75*
G02*
X72498600Y-125365000I0J101600D01*
G01*
X72498600Y-124965000D01*
G75*
G02*
X72600200Y-124863400I101600J0D01*
G01*
X73350200Y-124863400D01*
G75*
G02*
X73451800Y-124965000I0J-101600D01*
G01*
G37*
G36*
G01*
X70401800Y-124965000D02*
X70401800Y-125365000D01*
G75*
G02*
X70300200Y-125466600I-101600J0D01*
G01*
X69550200Y-125466600D01*
G75*
G02*
X69448600Y-125365000I0J101600D01*
G01*
X69448600Y-124965000D01*
G75*
G02*
X69550200Y-124863400I101600J0D01*
G01*
X70300200Y-124863400D01*
G75*
G02*
X70401800Y-124965000I0J-101600D01*
G01*
G37*
G36*
G01*
X70401800Y-125565000D02*
X70401800Y-125965000D01*
G75*
G02*
X70300200Y-126066600I-101600J0D01*
G01*
X69550200Y-126066600D01*
G75*
G02*
X69448600Y-125965000I0J101600D01*
G01*
X69448600Y-125565000D01*
G75*
G02*
X69550200Y-125463400I101600J0D01*
G01*
X70300200Y-125463400D01*
G75*
G02*
X70401800Y-125565000I0J-101600D01*
G01*
G37*
G36*
G01*
X70401800Y-126165000D02*
X70401800Y-126565000D01*
G75*
G02*
X70300200Y-126666600I-101600J0D01*
G01*
X69550200Y-126666600D01*
G75*
G02*
X69448600Y-126565000I0J101600D01*
G01*
X69448600Y-126165000D01*
G75*
G02*
X69550200Y-126063400I101600J0D01*
G01*
X70300200Y-126063400D01*
G75*
G02*
X70401800Y-126165000I0J-101600D01*
G01*
G37*
G36*
G01*
X70401800Y-126765000D02*
X70401800Y-127165000D01*
G75*
G02*
X70300200Y-127266600I-101600J0D01*
G01*
X69550200Y-127266600D01*
G75*
G02*
X69448600Y-127165000I0J101600D01*
G01*
X69448600Y-126765000D01*
G75*
G02*
X69550200Y-126663400I101600J0D01*
G01*
X70300200Y-126663400D01*
G75*
G02*
X70401800Y-126765000I0J-101600D01*
G01*
G37*
G36*
G01*
X70401800Y-127365000D02*
X70401800Y-127765000D01*
G75*
G02*
X70300200Y-127866600I-101600J0D01*
G01*
X69550200Y-127866600D01*
G75*
G02*
X69448600Y-127765000I0J101600D01*
G01*
X69448600Y-127365000D01*
G75*
G02*
X69550200Y-127263400I101600J0D01*
G01*
X70300200Y-127263400D01*
G75*
G02*
X70401800Y-127365000I0J-101600D01*
G01*
G37*
G36*
G01*
X72126800Y-124865001D02*
X72126800Y-127864999D01*
G75*
G02*
X72025200Y-127966599I-101600J0D01*
G01*
X71225200Y-127966599D01*
G75*
G02*
X71123600Y-127864999I0J101600D01*
G01*
X71123600Y-124865001D01*
G75*
G02*
X71225200Y-124763401I101600J0D01*
G01*
X72025200Y-124763401D01*
G75*
G02*
X72126800Y-124865001I0J-101600D01*
G01*
G37*
G36*
G01*
X67843000Y-113284000D02*
X67843000Y-110998000D01*
G75*
G02*
X67894000Y-110947000I51000J0D01*
G01*
X70180000Y-110947000D01*
G75*
G02*
X70231000Y-110998000I0J-51000D01*
G01*
X70231000Y-113284000D01*
G75*
G02*
X70180000Y-113335000I-51000J0D01*
G01*
X67894000Y-113335000D01*
G75*
G02*
X67843000Y-113284000I0J51000D01*
G01*
G37*
G36*
G01*
X65354000Y-113284000D02*
X65354000Y-110998000D01*
G75*
G02*
X65405000Y-110947000I51000J0D01*
G01*
X67691000Y-110947000D01*
G75*
G02*
X67742000Y-110998000I0J-51000D01*
G01*
X67742000Y-113284000D01*
G75*
G02*
X67691000Y-113335000I-51000J0D01*
G01*
X65405000Y-113335000D01*
G75*
G02*
X65354000Y-113284000I0J51000D01*
G01*
G37*
G36*
G01*
X62865000Y-113284000D02*
X62865000Y-110998000D01*
G75*
G02*
X62916000Y-110947000I51000J0D01*
G01*
X65202000Y-110947000D01*
G75*
G02*
X65253000Y-110998000I0J-51000D01*
G01*
X65253000Y-113284000D01*
G75*
G02*
X65202000Y-113335000I-51000J0D01*
G01*
X62916000Y-113335000D01*
G75*
G02*
X62865000Y-113284000I0J51000D01*
G01*
G37*
G36*
G01*
X70301400Y-129483200D02*
X70301400Y-128733200D01*
G75*
G02*
X70352400Y-128682200I51000J0D01*
G01*
X71552400Y-128682200D01*
G75*
G02*
X71603400Y-128733200I0J-51000D01*
G01*
X71603400Y-129483200D01*
G75*
G02*
X71552400Y-129534200I-51000J0D01*
G01*
X70352400Y-129534200D01*
G75*
G02*
X70301400Y-129483200I0J51000D01*
G01*
G37*
G36*
G01*
X68401400Y-129483200D02*
X68401400Y-128733200D01*
G75*
G02*
X68452400Y-128682200I51000J0D01*
G01*
X69652400Y-128682200D01*
G75*
G02*
X69703400Y-128733200I0J-51000D01*
G01*
X69703400Y-129483200D01*
G75*
G02*
X69652400Y-129534200I-51000J0D01*
G01*
X68452400Y-129534200D01*
G75*
G02*
X68401400Y-129483200I0J51000D01*
G01*
G37*
G36*
G01*
X66731800Y-126308400D02*
X67481800Y-126308400D01*
G75*
G02*
X67532800Y-126359400I0J-51000D01*
G01*
X67532800Y-127559400D01*
G75*
G02*
X67481800Y-127610400I-51000J0D01*
G01*
X66731800Y-127610400D01*
G75*
G02*
X66680800Y-127559400I0J51000D01*
G01*
X66680800Y-126359400D01*
G75*
G02*
X66731800Y-126308400I51000J0D01*
G01*
G37*
G36*
G01*
X66731800Y-124408400D02*
X67481800Y-124408400D01*
G75*
G02*
X67532800Y-124459400I0J-51000D01*
G01*
X67532800Y-125659400D01*
G75*
G02*
X67481800Y-125710400I-51000J0D01*
G01*
X66731800Y-125710400D01*
G75*
G02*
X66680800Y-125659400I0J51000D01*
G01*
X66680800Y-124459400D01*
G75*
G02*
X66731800Y-124408400I51000J0D01*
G01*
G37*
D12*
X77164000Y-136550400D03*
X72034000Y-136550400D03*
X66904000Y-136550400D03*
X61774000Y-136550400D03*
G36*
G01*
X70218800Y-132573600D02*
X70218800Y-130773600D01*
G75*
G02*
X70269800Y-130722600I51000J0D01*
G01*
X73769800Y-130722600D01*
G75*
G02*
X73820800Y-130773600I0J-51000D01*
G01*
X73820800Y-132573600D01*
G75*
G02*
X73769800Y-132624600I-51000J0D01*
G01*
X70269800Y-132624600D01*
G75*
G02*
X70218800Y-132573600I0J51000D01*
G01*
G37*
G36*
G01*
X65218800Y-132573600D02*
X65218800Y-130773600D01*
G75*
G02*
X65269800Y-130722600I51000J0D01*
G01*
X68769800Y-130722600D01*
G75*
G02*
X68820800Y-130773600I0J-51000D01*
G01*
X68820800Y-132573600D01*
G75*
G02*
X68769800Y-132624600I-51000J0D01*
G01*
X65269800Y-132624600D01*
G75*
G02*
X65218800Y-132573600I0J51000D01*
G01*
G37*
G36*
G01*
X79569000Y-126454000D02*
X79569000Y-128054000D01*
G75*
G02*
X79518000Y-128105000I-51000J0D01*
G01*
X77518000Y-128105000D01*
G75*
G02*
X77467000Y-128054000I0J51000D01*
G01*
X77467000Y-126454000D01*
G75*
G02*
X77518000Y-126403000I51000J0D01*
G01*
X79518000Y-126403000D01*
G75*
G02*
X79569000Y-126454000I0J-51000D01*
G01*
G37*
G36*
G01*
X83569000Y-126454000D02*
X83569000Y-128054000D01*
G75*
G02*
X83518000Y-128105000I-51000J0D01*
G01*
X81518000Y-128105000D01*
G75*
G02*
X81467000Y-128054000I0J51000D01*
G01*
X81467000Y-126454000D01*
G75*
G02*
X81518000Y-126403000I51000J0D01*
G01*
X83518000Y-126403000D01*
G75*
G02*
X83569000Y-126454000I0J-51000D01*
G01*
G37*
G36*
G01*
X79569000Y-123837800D02*
X79569000Y-125437800D01*
G75*
G02*
X79518000Y-125488800I-51000J0D01*
G01*
X77518000Y-125488800D01*
G75*
G02*
X77467000Y-125437800I0J51000D01*
G01*
X77467000Y-123837800D01*
G75*
G02*
X77518000Y-123786800I51000J0D01*
G01*
X79518000Y-123786800D01*
G75*
G02*
X79569000Y-123837800I0J-51000D01*
G01*
G37*
G36*
G01*
X83569000Y-123837800D02*
X83569000Y-125437800D01*
G75*
G02*
X83518000Y-125488800I-51000J0D01*
G01*
X81518000Y-125488800D01*
G75*
G02*
X81467000Y-125437800I0J51000D01*
G01*
X81467000Y-123837800D01*
G75*
G02*
X81518000Y-123786800I51000J0D01*
G01*
X83518000Y-123786800D01*
G75*
G02*
X83569000Y-123837800I0J-51000D01*
G01*
G37*
G36*
G01*
X74940000Y-127372800D02*
X76190000Y-127372800D01*
G75*
G02*
X76241000Y-127423800I0J-51000D01*
G01*
X76241000Y-128923800D01*
G75*
G02*
X76190000Y-128974800I-51000J0D01*
G01*
X74940000Y-128974800D01*
G75*
G02*
X74889000Y-128923800I0J51000D01*
G01*
X74889000Y-127423800D01*
G75*
G02*
X74940000Y-127372800I51000J0D01*
G01*
G37*
G36*
G01*
X74940000Y-124872800D02*
X76190000Y-124872800D01*
G75*
G02*
X76241000Y-124923800I0J-51000D01*
G01*
X76241000Y-126423800D01*
G75*
G02*
X76190000Y-126474800I-51000J0D01*
G01*
X74940000Y-126474800D01*
G75*
G02*
X74889000Y-126423800I0J51000D01*
G01*
X74889000Y-124923800D01*
G75*
G02*
X74940000Y-124872800I51000J0D01*
G01*
G37*
G36*
G01*
X76365000Y-118964400D02*
X74765000Y-118964400D01*
G75*
G02*
X74714000Y-118913400I0J51000D01*
G01*
X74714000Y-116913400D01*
G75*
G02*
X74765000Y-116862400I51000J0D01*
G01*
X76365000Y-116862400D01*
G75*
G02*
X76416000Y-116913400I0J-51000D01*
G01*
X76416000Y-118913400D01*
G75*
G02*
X76365000Y-118964400I-51000J0D01*
G01*
G37*
G36*
G01*
X76365000Y-122964400D02*
X74765000Y-122964400D01*
G75*
G02*
X74714000Y-122913400I0J51000D01*
G01*
X74714000Y-120913400D01*
G75*
G02*
X74765000Y-120862400I51000J0D01*
G01*
X76365000Y-120862400D01*
G75*
G02*
X76416000Y-120913400I0J-51000D01*
G01*
X76416000Y-122913400D01*
G75*
G02*
X76365000Y-122964400I-51000J0D01*
G01*
G37*
D13*
G36*
X67844732Y-110946000D02*
G01*
X67845000Y-110947000D01*
X67845000Y-113335000D01*
X67844000Y-113336732D01*
X67843000Y-113337000D01*
X67742000Y-113337000D01*
X67740268Y-113336000D01*
X67740000Y-113335000D01*
X67740000Y-110947000D01*
X67741000Y-110945268D01*
X67742000Y-110945000D01*
X67843000Y-110945000D01*
X67844732Y-110946000D01*
G37*
G36*
X65355732Y-110946000D02*
G01*
X65356000Y-110947000D01*
X65356000Y-113335000D01*
X65355000Y-113336732D01*
X65354000Y-113337000D01*
X65253000Y-113337000D01*
X65251268Y-113336000D01*
X65251000Y-113335000D01*
X65251000Y-110947000D01*
X65252000Y-110945268D01*
X65253000Y-110945000D01*
X65354000Y-110945000D01*
X65355732Y-110946000D01*
G37*
M02*
