G04 #@! TF.GenerationSoftware,KiCad,Pcbnew,5.1.6*
G04 #@! TF.CreationDate,2020-09-08T19:35:49+02:00*
G04 #@! TF.ProjectId,a500_pwr,61353030-5f70-4777-922e-6b696361645f,rev?*
G04 #@! TF.SameCoordinates,Original*
G04 #@! TF.FileFunction,Copper,L1,Top*
G04 #@! TF.FilePolarity,Positive*
%FSLAX46Y46*%
G04 Gerber Fmt 4.6, Leading zero omitted, Abs format (unit mm)*
G04 Created by KiCad (PCBNEW 5.1.6) date 2020-09-08 19:35:49*
%MOMM*%
%LPD*%
G01*
G04 APERTURE LIST*
G04 #@! TA.AperFunction,ComponentPad*
%ADD10R,2.000000X4.200000*%
G04 #@! TD*
G04 #@! TA.AperFunction,ComponentPad*
%ADD11R,4.200000X2.000000*%
G04 #@! TD*
G04 #@! TA.AperFunction,ComponentPad*
%ADD12C,1.700000*%
G04 #@! TD*
G04 #@! TA.AperFunction,ComponentPad*
%ADD13C,1.600000*%
G04 #@! TD*
G04 #@! TA.AperFunction,ComponentPad*
%ADD14R,1.600000X1.600000*%
G04 #@! TD*
G04 #@! TA.AperFunction,SMDPad,CuDef*
%ADD15R,1.470000X3.000000*%
G04 #@! TD*
G04 #@! TA.AperFunction,SMDPad,CuDef*
%ADD16R,1.600000X2.000000*%
G04 #@! TD*
G04 #@! TA.AperFunction,SMDPad,CuDef*
%ADD17R,1.060000X1.060000*%
G04 #@! TD*
G04 #@! TA.AperFunction,SMDPad,CuDef*
%ADD18R,0.750000X1.200000*%
G04 #@! TD*
G04 #@! TA.AperFunction,SMDPad,CuDef*
%ADD19R,3.000000X2.200000*%
G04 #@! TD*
G04 #@! TA.AperFunction,SMDPad,CuDef*
%ADD20R,0.750000X0.400000*%
G04 #@! TD*
G04 #@! TA.AperFunction,SMDPad,CuDef*
%ADD21R,0.800000X2.999999*%
G04 #@! TD*
G04 #@! TA.AperFunction,ComponentPad*
%ADD22R,2.286000X2.286000*%
G04 #@! TD*
G04 #@! TA.AperFunction,SMDPad,CuDef*
%ADD23R,1.200000X0.750000*%
G04 #@! TD*
G04 #@! TA.AperFunction,ComponentPad*
%ADD24C,3.175000*%
G04 #@! TD*
G04 #@! TA.AperFunction,SMDPad,CuDef*
%ADD25R,3.500000X1.800000*%
G04 #@! TD*
G04 #@! TA.AperFunction,SMDPad,CuDef*
%ADD26R,2.000000X1.600000*%
G04 #@! TD*
G04 #@! TA.AperFunction,SMDPad,CuDef*
%ADD27R,1.250000X1.500000*%
G04 #@! TD*
G04 #@! TA.AperFunction,ViaPad*
%ADD28C,0.800000*%
G04 #@! TD*
G04 #@! TA.AperFunction,ViaPad*
%ADD29C,1.200000*%
G04 #@! TD*
G04 #@! TA.AperFunction,Conductor*
%ADD30C,1.270000*%
G04 #@! TD*
G04 #@! TA.AperFunction,Conductor*
%ADD31C,1.670000*%
G04 #@! TD*
G04 #@! TA.AperFunction,Conductor*
%ADD32C,0.254000*%
G04 #@! TD*
G04 #@! TA.AperFunction,Conductor*
%ADD33C,1.651000*%
G04 #@! TD*
G04 #@! TA.AperFunction,Conductor*
%ADD34C,1.905000*%
G04 #@! TD*
G04 #@! TA.AperFunction,Conductor*
%ADD35C,1.750000*%
G04 #@! TD*
G04 #@! TA.AperFunction,Conductor*
%ADD36C,0.508000*%
G04 #@! TD*
G04 #@! TA.AperFunction,Conductor*
%ADD37C,0.381000*%
G04 #@! TD*
G04 #@! TA.AperFunction,Conductor*
%ADD38C,0.152400*%
G04 #@! TD*
G04 APERTURE END LIST*
D10*
X57500000Y-113592600D03*
D11*
X62200000Y-116592600D03*
X62200000Y-110592600D03*
D12*
X71600000Y-123420000D03*
X71600000Y-120880000D03*
X71600000Y-118340000D03*
X71600000Y-113260000D03*
D13*
X58222000Y-127508000D03*
D14*
X61722000Y-127508000D03*
D15*
X80951400Y-146500400D03*
X80951400Y-139200400D03*
D16*
X58267600Y-146869400D03*
X58267600Y-150869400D03*
X81610200Y-131324600D03*
X81610200Y-135324600D03*
D17*
X74637800Y-150052000D03*
X74637800Y-147762000D03*
X74637800Y-145472000D03*
X74637800Y-143182000D03*
X74637800Y-140892000D03*
X72347800Y-150052000D03*
X72347800Y-147762000D03*
X72347800Y-145472000D03*
X72347800Y-143182000D03*
X72347800Y-140892000D03*
X70057800Y-150052000D03*
X70057800Y-147762000D03*
X70057800Y-145472000D03*
X70057800Y-143182000D03*
X70057800Y-140892000D03*
X67767800Y-150052000D03*
X67767800Y-147762000D03*
X67767800Y-145472000D03*
X67767800Y-143182000D03*
X67767800Y-140892000D03*
X65477800Y-150052000D03*
X65477800Y-147762000D03*
X65477800Y-145472000D03*
X65477800Y-143182000D03*
X65477800Y-140892000D03*
D18*
X77520800Y-151140200D03*
X77520800Y-149240200D03*
X79222600Y-149240200D03*
X79222600Y-151140200D03*
D19*
X61569600Y-150321600D03*
X61569600Y-144521600D03*
D20*
X72975200Y-127565000D03*
X72975200Y-126965000D03*
X72975200Y-126365000D03*
X72975200Y-125765000D03*
X72975200Y-125165000D03*
X69925200Y-125165000D03*
X69925200Y-125765000D03*
X69925200Y-126365000D03*
X69925200Y-126965000D03*
X69925200Y-127565000D03*
D21*
X71625200Y-126365000D03*
D22*
X69037000Y-112141000D03*
X66548000Y-112141000D03*
X64059000Y-112141000D03*
D23*
X70952400Y-129108200D03*
X69052400Y-129108200D03*
D18*
X67106800Y-126959400D03*
X67106800Y-125059400D03*
D24*
X77164000Y-136550400D03*
X72034000Y-136550400D03*
X66904000Y-136550400D03*
X61774000Y-136550400D03*
D25*
X72019800Y-131673600D03*
X67019800Y-131673600D03*
D26*
X78518000Y-127254000D03*
X82518000Y-127254000D03*
X78518000Y-124637800D03*
X82518000Y-124637800D03*
D27*
X75565000Y-128173800D03*
X75565000Y-125673800D03*
D16*
X75565000Y-117913400D03*
X75565000Y-121913400D03*
D28*
X81559400Y-129133600D03*
X83337400Y-129133600D03*
X68910200Y-144322800D03*
X68910200Y-146608800D03*
X71196200Y-146591866D03*
X71196200Y-144288933D03*
X71196200Y-141986000D03*
X71196200Y-148894800D03*
D29*
X58267600Y-148818600D03*
D28*
X76682600Y-115570000D03*
X76682600Y-112014000D03*
X73202800Y-115570000D03*
X76682600Y-113792000D03*
X66598800Y-118618000D03*
X57505600Y-118719600D03*
X57505600Y-110490000D03*
X83489800Y-131318000D03*
X77724000Y-121564400D03*
X65125600Y-129082800D03*
X65125600Y-127000000D03*
X65125600Y-124917200D03*
D29*
X61264800Y-147066000D03*
X61264800Y-148361400D03*
D30*
X70057800Y-150052000D02*
X70057800Y-147762000D01*
X67767800Y-147762000D02*
X74637800Y-147762000D01*
X67767800Y-145472000D02*
X72347800Y-145472000D01*
X67767800Y-147762000D02*
X67767800Y-143182000D01*
X65477800Y-143182000D02*
X72347800Y-143182000D01*
X70057800Y-143182000D02*
X70057800Y-140892000D01*
X72347800Y-140892000D02*
X72347800Y-150052000D01*
X70057800Y-147762000D02*
X70057800Y-143182000D01*
X77520800Y-148209000D02*
X77520800Y-149240200D01*
X74637800Y-147762000D02*
X77073800Y-147762000D01*
X77073800Y-147762000D02*
X77520800Y-148209000D01*
X71196200Y-141986000D02*
X71196200Y-140893800D01*
X70057800Y-140892000D02*
X71196200Y-140893800D01*
X71196200Y-140893800D02*
X72347800Y-140892000D01*
X71196200Y-141986000D02*
X71196200Y-144297400D01*
X71196200Y-144297400D02*
X71196200Y-146583400D01*
X71196200Y-146583400D02*
X71196200Y-148894800D01*
X71196200Y-150012400D02*
X71221600Y-150037800D01*
X71196200Y-148894800D02*
X71196200Y-150012400D01*
X72347800Y-150052000D02*
X71221600Y-150037800D01*
X71221600Y-150037800D02*
X70057800Y-150052000D01*
X68935600Y-144297400D02*
X68910200Y-144322800D01*
X71196200Y-144297400D02*
X68935600Y-144297400D01*
X68910200Y-146608800D02*
X68910200Y-144322800D01*
X71170800Y-146608800D02*
X71196200Y-146583400D01*
X68910200Y-146608800D02*
X71170800Y-146608800D01*
X68908600Y-144322800D02*
X67767800Y-143182000D01*
X68910200Y-144322800D02*
X68908600Y-144322800D01*
X68910200Y-146619600D02*
X67767800Y-147762000D01*
X68910200Y-146608800D02*
X68910200Y-146619600D01*
D31*
X58267600Y-146869400D02*
X58267600Y-148716899D01*
D30*
X75182800Y-138531600D02*
X77164000Y-136550400D01*
X73914000Y-138531600D02*
X75182800Y-138531600D01*
X72347800Y-140892000D02*
X72347800Y-140097800D01*
X72347800Y-140097800D02*
X73914000Y-138531600D01*
D32*
X73107600Y-126232600D02*
X72975200Y-126365000D01*
X75316400Y-125425200D02*
X75565000Y-125673800D01*
X72975200Y-125765000D02*
X73194200Y-125984000D01*
D30*
X75565000Y-124739400D02*
X75565000Y-125673800D01*
X75565000Y-121913400D02*
X75565000Y-124739400D01*
D33*
X72975600Y-120880000D02*
X71600000Y-120880000D01*
X75565000Y-121913400D02*
X74009000Y-121913400D01*
X74009000Y-121913400D02*
X72975600Y-120880000D01*
D34*
X61264800Y-150118400D02*
X61264800Y-147066000D01*
D35*
X58267600Y-150869400D02*
X60513800Y-150869400D01*
X60513800Y-150869400D02*
X61264800Y-150118400D01*
D34*
X61774000Y-134305336D02*
X61774000Y-136550400D01*
X61774000Y-123849200D02*
X61774000Y-134305336D01*
X71600000Y-120880000D02*
X64743200Y-120880000D01*
X64743200Y-120880000D02*
X61774000Y-123849200D01*
D36*
X73355200Y-129108200D02*
X73406000Y-129057400D01*
X70952400Y-129108200D02*
X73355200Y-129108200D01*
D30*
X72019800Y-131673600D02*
X72019800Y-131993400D01*
D36*
X73730800Y-128173800D02*
X75565000Y-128173800D01*
X73355200Y-129108200D02*
X73730800Y-128732600D01*
X78518000Y-127254000D02*
X78518000Y-124637800D01*
X72019800Y-129108200D02*
X70952400Y-129108200D01*
X72019800Y-131673600D02*
X72019800Y-129108200D01*
X71625200Y-129085600D02*
X71625200Y-126365000D01*
X70952400Y-129108200D02*
X71602600Y-129108200D01*
X71602600Y-129108200D02*
X71625200Y-129085600D01*
X73415401Y-127619001D02*
X73029201Y-127619001D01*
X73730800Y-128732600D02*
X73730800Y-127934400D01*
X73730800Y-127934400D02*
X73415401Y-127619001D01*
X77419200Y-127254000D02*
X78518000Y-127254000D01*
X75565000Y-128173800D02*
X76499400Y-128173800D01*
X76499400Y-128173800D02*
X77419200Y-127254000D01*
D30*
X67576700Y-136550400D02*
X66904000Y-136550400D01*
X72019800Y-131434600D02*
X72019800Y-132107300D01*
X72019800Y-132107300D02*
X67576700Y-136550400D01*
D34*
X80924400Y-137464800D02*
X81584800Y-136804400D01*
X81584800Y-136804400D02*
X81584800Y-135350000D01*
X80951400Y-139200400D02*
X80924400Y-139173400D01*
X80924400Y-139173400D02*
X80924400Y-137464800D01*
X75057000Y-133477000D02*
X72034000Y-136500000D01*
X72034000Y-136500000D02*
X72034000Y-136550400D01*
X79883000Y-133477000D02*
X75057000Y-133477000D01*
X81610200Y-135324600D02*
X81610200Y-135204200D01*
X81610200Y-135204200D02*
X79883000Y-133477000D01*
D37*
X69169200Y-125765000D02*
X67970400Y-126963800D01*
X69925200Y-125765000D02*
X69169200Y-125765000D01*
X67966000Y-126959400D02*
X67106800Y-126959400D01*
X67970400Y-126963800D02*
X67966000Y-126959400D01*
X69052400Y-129016800D02*
X69138800Y-128930400D01*
X69052400Y-129108200D02*
X69052400Y-129016800D01*
X67106800Y-126959400D02*
X67106800Y-128320800D01*
X67894200Y-129108200D02*
X69052400Y-129108200D01*
X67106800Y-128320800D02*
X67894200Y-129108200D01*
D34*
X65477800Y-140892000D02*
X67767800Y-140892000D01*
X62511200Y-140892000D02*
X65477800Y-140892000D01*
X61468000Y-141935200D02*
X62511200Y-140892000D01*
X61061600Y-144521600D02*
X61468000Y-144115200D01*
X61468000Y-144115200D02*
X61468000Y-141935200D01*
X74637800Y-145472000D02*
X74637800Y-143182000D01*
X74637800Y-143182000D02*
X74637800Y-140892000D01*
D36*
X80951400Y-148258200D02*
X80951400Y-146500400D01*
X79222600Y-149240200D02*
X79969400Y-149240200D01*
X79969400Y-149240200D02*
X80951400Y-148258200D01*
D34*
X80951400Y-144476800D02*
X80951400Y-146500400D01*
X74637800Y-143182000D02*
X74737200Y-143281400D01*
X79756000Y-143281400D02*
X80951400Y-144476800D01*
X74737200Y-143281400D02*
X79756000Y-143281400D01*
D36*
X77520800Y-151140200D02*
X79222600Y-151140200D01*
X75884000Y-150077400D02*
X76946800Y-151140200D01*
X74637800Y-150052000D02*
X75884000Y-150052000D01*
X76946800Y-151140200D02*
X77520800Y-151140200D01*
X75884000Y-150052000D02*
X75884000Y-150077400D01*
D34*
X62006600Y-116586000D02*
X62000000Y-116592600D01*
X71600000Y-118340000D02*
X69846000Y-116586000D01*
X69846000Y-116586000D02*
X62006600Y-116586000D01*
D32*
G36*
X79578200Y-131546600D02*
G01*
X74879200Y-131546600D01*
X74854424Y-131549040D01*
X74830599Y-131556267D01*
X74808643Y-131568003D01*
X74790571Y-131582639D01*
X73836958Y-132511800D01*
X70205950Y-132511800D01*
X70217952Y-128143000D01*
X71031100Y-128143000D01*
X71055876Y-128140560D01*
X71079701Y-128133333D01*
X71101657Y-128121597D01*
X71120903Y-128105803D01*
X71136697Y-128086557D01*
X71148433Y-128064601D01*
X71155660Y-128040776D01*
X71158099Y-128015519D01*
X71145882Y-124790200D01*
X71984815Y-124790200D01*
X72009006Y-127306021D01*
X72011684Y-127330773D01*
X72019140Y-127354527D01*
X72031087Y-127376369D01*
X72047065Y-127395462D01*
X72066461Y-127411070D01*
X72088530Y-127422595D01*
X72112422Y-127429592D01*
X72136000Y-127431800D01*
X72409844Y-127431800D01*
X72417650Y-127438206D01*
X72474457Y-127468570D01*
X72536097Y-127487268D01*
X72600200Y-127493582D01*
X73350200Y-127493582D01*
X73414303Y-127487268D01*
X73475943Y-127468570D01*
X73532750Y-127438206D01*
X73540556Y-127431800D01*
X76949300Y-127431800D01*
X76974076Y-127429360D01*
X76997901Y-127422133D01*
X77019857Y-127410397D01*
X77039103Y-127394603D01*
X77054897Y-127375357D01*
X77066633Y-127353401D01*
X77073860Y-127329576D01*
X77076293Y-127306105D01*
X77113102Y-123723400D01*
X79578200Y-123723400D01*
X79578200Y-131546600D01*
G37*
X79578200Y-131546600D02*
X74879200Y-131546600D01*
X74854424Y-131549040D01*
X74830599Y-131556267D01*
X74808643Y-131568003D01*
X74790571Y-131582639D01*
X73836958Y-132511800D01*
X70205950Y-132511800D01*
X70217952Y-128143000D01*
X71031100Y-128143000D01*
X71055876Y-128140560D01*
X71079701Y-128133333D01*
X71101657Y-128121597D01*
X71120903Y-128105803D01*
X71136697Y-128086557D01*
X71148433Y-128064601D01*
X71155660Y-128040776D01*
X71158099Y-128015519D01*
X71145882Y-124790200D01*
X71984815Y-124790200D01*
X72009006Y-127306021D01*
X72011684Y-127330773D01*
X72019140Y-127354527D01*
X72031087Y-127376369D01*
X72047065Y-127395462D01*
X72066461Y-127411070D01*
X72088530Y-127422595D01*
X72112422Y-127429592D01*
X72136000Y-127431800D01*
X72409844Y-127431800D01*
X72417650Y-127438206D01*
X72474457Y-127468570D01*
X72536097Y-127487268D01*
X72600200Y-127493582D01*
X73350200Y-127493582D01*
X73414303Y-127487268D01*
X73475943Y-127468570D01*
X73532750Y-127438206D01*
X73540556Y-127431800D01*
X76949300Y-127431800D01*
X76974076Y-127429360D01*
X76997901Y-127422133D01*
X77019857Y-127410397D01*
X77039103Y-127394603D01*
X77054897Y-127375357D01*
X77066633Y-127353401D01*
X77073860Y-127329576D01*
X77076293Y-127306105D01*
X77113102Y-123723400D01*
X79578200Y-123723400D01*
X79578200Y-131546600D01*
G36*
X70397190Y-125222000D02*
G01*
X68973700Y-125222000D01*
X68948924Y-125224440D01*
X68925099Y-125231667D01*
X68903143Y-125243403D01*
X68888639Y-125254694D01*
X68277187Y-125806200D01*
X66167000Y-125806200D01*
X66142224Y-125808640D01*
X66118399Y-125815867D01*
X66096443Y-125827603D01*
X66077197Y-125843397D01*
X66061403Y-125862643D01*
X66049667Y-125884599D01*
X66042440Y-125908424D01*
X66040000Y-125933200D01*
X66040000Y-130175000D01*
X66042440Y-130199776D01*
X66049667Y-130223601D01*
X66061403Y-130245557D01*
X66077197Y-130264803D01*
X66096443Y-130280597D01*
X66118399Y-130292333D01*
X66142224Y-130299560D01*
X66167000Y-130302000D01*
X69138800Y-130302000D01*
X69138800Y-132892800D01*
X64236600Y-132892800D01*
X64236600Y-124002800D01*
X70407701Y-124002800D01*
X70397190Y-125222000D01*
G37*
X70397190Y-125222000D02*
X68973700Y-125222000D01*
X68948924Y-125224440D01*
X68925099Y-125231667D01*
X68903143Y-125243403D01*
X68888639Y-125254694D01*
X68277187Y-125806200D01*
X66167000Y-125806200D01*
X66142224Y-125808640D01*
X66118399Y-125815867D01*
X66096443Y-125827603D01*
X66077197Y-125843397D01*
X66061403Y-125862643D01*
X66049667Y-125884599D01*
X66042440Y-125908424D01*
X66040000Y-125933200D01*
X66040000Y-130175000D01*
X66042440Y-130199776D01*
X66049667Y-130223601D01*
X66061403Y-130245557D01*
X66077197Y-130264803D01*
X66096443Y-130280597D01*
X66118399Y-130292333D01*
X66142224Y-130299560D01*
X66167000Y-130302000D01*
X69138800Y-130302000D01*
X69138800Y-132892800D01*
X64236600Y-132892800D01*
X64236600Y-124002800D01*
X70407701Y-124002800D01*
X70397190Y-125222000D01*
G36*
X78308600Y-122413054D02*
G01*
X78307128Y-122428000D01*
X78313005Y-122487673D01*
X78330411Y-122545052D01*
X78358677Y-122597933D01*
X78396716Y-122644284D01*
X78443067Y-122682323D01*
X78495948Y-122710589D01*
X78553327Y-122727995D01*
X78613000Y-122733872D01*
X78627946Y-122732400D01*
X84023600Y-122732400D01*
X84023600Y-132461000D01*
X80797400Y-132461000D01*
X80797400Y-123342400D01*
X80794960Y-123317624D01*
X80787733Y-123293799D01*
X80775997Y-123271843D01*
X80760203Y-123252597D01*
X80740957Y-123236803D01*
X80719001Y-123225067D01*
X80695176Y-123217840D01*
X80670400Y-123215400D01*
X77012800Y-123215400D01*
X77012800Y-119888000D01*
X77010360Y-119863224D01*
X77003133Y-119839399D01*
X76991397Y-119817443D01*
X76975603Y-119798197D01*
X76956357Y-119782403D01*
X76934401Y-119770667D01*
X76910576Y-119763440D01*
X76885800Y-119761000D01*
X73256990Y-119761000D01*
X73201529Y-119744176D01*
X73032214Y-119727500D01*
X73032207Y-119727500D01*
X72975600Y-119721925D01*
X72918993Y-119727500D01*
X72158096Y-119727500D01*
X72092012Y-119692177D01*
X71850826Y-119619014D01*
X71759301Y-119610000D01*
X71850825Y-119600985D01*
X72092012Y-119527823D01*
X72314291Y-119409012D01*
X72509120Y-119249120D01*
X72669012Y-119054291D01*
X72787823Y-118832012D01*
X72860985Y-118590825D01*
X72885690Y-118340000D01*
X72860985Y-118089174D01*
X72787823Y-117847987D01*
X72669012Y-117625709D01*
X72549184Y-117479698D01*
X70795183Y-115725697D01*
X70755120Y-115676880D01*
X70560291Y-115516988D01*
X70338012Y-115398177D01*
X70096826Y-115325014D01*
X69908849Y-115306500D01*
X69908838Y-115306500D01*
X69846000Y-115300311D01*
X69783162Y-115306500D01*
X64458427Y-115306500D01*
X64425743Y-115289030D01*
X64364103Y-115270332D01*
X64300000Y-115264018D01*
X60100000Y-115264018D01*
X60035897Y-115270332D01*
X59974257Y-115289030D01*
X59917450Y-115319394D01*
X59867657Y-115360257D01*
X59826794Y-115410050D01*
X59796430Y-115466857D01*
X59777732Y-115528497D01*
X59771418Y-115592600D01*
X59771418Y-117592600D01*
X59777732Y-117656703D01*
X59796430Y-117718343D01*
X59826794Y-117775150D01*
X59867657Y-117824943D01*
X59917450Y-117865806D01*
X59974257Y-117896170D01*
X60035897Y-117914868D01*
X60100000Y-117921182D01*
X64300000Y-117921182D01*
X64364103Y-117914868D01*
X64425743Y-117896170D01*
X64482550Y-117865806D01*
X64482923Y-117865500D01*
X69316014Y-117865500D01*
X70739698Y-119289184D01*
X70885709Y-119409012D01*
X71107987Y-119527823D01*
X71347575Y-119600500D01*
X64806038Y-119600500D01*
X64743200Y-119594311D01*
X64680362Y-119600500D01*
X64680351Y-119600500D01*
X64492374Y-119619014D01*
X64251188Y-119692177D01*
X64146319Y-119748231D01*
X64122430Y-119761000D01*
X55879600Y-119761000D01*
X55879600Y-113144076D01*
X70423000Y-113144076D01*
X70423000Y-113375924D01*
X70468231Y-113603318D01*
X70556956Y-113817519D01*
X70685764Y-114010294D01*
X70849706Y-114174236D01*
X71042481Y-114303044D01*
X71256682Y-114391769D01*
X71484076Y-114437000D01*
X71715924Y-114437000D01*
X71943318Y-114391769D01*
X72157519Y-114303044D01*
X72350294Y-114174236D01*
X72514236Y-114010294D01*
X72643044Y-113817519D01*
X72731769Y-113603318D01*
X72777000Y-113375924D01*
X72777000Y-113144076D01*
X72731769Y-112916682D01*
X72643044Y-112702481D01*
X72514236Y-112509706D01*
X72350294Y-112345764D01*
X72157519Y-112216956D01*
X71943318Y-112128231D01*
X71715924Y-112083000D01*
X71484076Y-112083000D01*
X71256682Y-112128231D01*
X71042481Y-112216956D01*
X70849706Y-112345764D01*
X70685764Y-112509706D01*
X70556956Y-112702481D01*
X70468231Y-112916682D01*
X70423000Y-113144076D01*
X55879600Y-113144076D01*
X55879600Y-109702600D01*
X78308601Y-109702600D01*
X78308600Y-122413054D01*
G37*
X78308600Y-122413054D02*
X78307128Y-122428000D01*
X78313005Y-122487673D01*
X78330411Y-122545052D01*
X78358677Y-122597933D01*
X78396716Y-122644284D01*
X78443067Y-122682323D01*
X78495948Y-122710589D01*
X78553327Y-122727995D01*
X78613000Y-122733872D01*
X78627946Y-122732400D01*
X84023600Y-122732400D01*
X84023600Y-132461000D01*
X80797400Y-132461000D01*
X80797400Y-123342400D01*
X80794960Y-123317624D01*
X80787733Y-123293799D01*
X80775997Y-123271843D01*
X80760203Y-123252597D01*
X80740957Y-123236803D01*
X80719001Y-123225067D01*
X80695176Y-123217840D01*
X80670400Y-123215400D01*
X77012800Y-123215400D01*
X77012800Y-119888000D01*
X77010360Y-119863224D01*
X77003133Y-119839399D01*
X76991397Y-119817443D01*
X76975603Y-119798197D01*
X76956357Y-119782403D01*
X76934401Y-119770667D01*
X76910576Y-119763440D01*
X76885800Y-119761000D01*
X73256990Y-119761000D01*
X73201529Y-119744176D01*
X73032214Y-119727500D01*
X73032207Y-119727500D01*
X72975600Y-119721925D01*
X72918993Y-119727500D01*
X72158096Y-119727500D01*
X72092012Y-119692177D01*
X71850826Y-119619014D01*
X71759301Y-119610000D01*
X71850825Y-119600985D01*
X72092012Y-119527823D01*
X72314291Y-119409012D01*
X72509120Y-119249120D01*
X72669012Y-119054291D01*
X72787823Y-118832012D01*
X72860985Y-118590825D01*
X72885690Y-118340000D01*
X72860985Y-118089174D01*
X72787823Y-117847987D01*
X72669012Y-117625709D01*
X72549184Y-117479698D01*
X70795183Y-115725697D01*
X70755120Y-115676880D01*
X70560291Y-115516988D01*
X70338012Y-115398177D01*
X70096826Y-115325014D01*
X69908849Y-115306500D01*
X69908838Y-115306500D01*
X69846000Y-115300311D01*
X69783162Y-115306500D01*
X64458427Y-115306500D01*
X64425743Y-115289030D01*
X64364103Y-115270332D01*
X64300000Y-115264018D01*
X60100000Y-115264018D01*
X60035897Y-115270332D01*
X59974257Y-115289030D01*
X59917450Y-115319394D01*
X59867657Y-115360257D01*
X59826794Y-115410050D01*
X59796430Y-115466857D01*
X59777732Y-115528497D01*
X59771418Y-115592600D01*
X59771418Y-117592600D01*
X59777732Y-117656703D01*
X59796430Y-117718343D01*
X59826794Y-117775150D01*
X59867657Y-117824943D01*
X59917450Y-117865806D01*
X59974257Y-117896170D01*
X60035897Y-117914868D01*
X60100000Y-117921182D01*
X64300000Y-117921182D01*
X64364103Y-117914868D01*
X64425743Y-117896170D01*
X64482550Y-117865806D01*
X64482923Y-117865500D01*
X69316014Y-117865500D01*
X70739698Y-119289184D01*
X70885709Y-119409012D01*
X71107987Y-119527823D01*
X71347575Y-119600500D01*
X64806038Y-119600500D01*
X64743200Y-119594311D01*
X64680362Y-119600500D01*
X64680351Y-119600500D01*
X64492374Y-119619014D01*
X64251188Y-119692177D01*
X64146319Y-119748231D01*
X64122430Y-119761000D01*
X55879600Y-119761000D01*
X55879600Y-113144076D01*
X70423000Y-113144076D01*
X70423000Y-113375924D01*
X70468231Y-113603318D01*
X70556956Y-113817519D01*
X70685764Y-114010294D01*
X70849706Y-114174236D01*
X71042481Y-114303044D01*
X71256682Y-114391769D01*
X71484076Y-114437000D01*
X71715924Y-114437000D01*
X71943318Y-114391769D01*
X72157519Y-114303044D01*
X72350294Y-114174236D01*
X72514236Y-114010294D01*
X72643044Y-113817519D01*
X72731769Y-113603318D01*
X72777000Y-113375924D01*
X72777000Y-113144076D01*
X72731769Y-112916682D01*
X72643044Y-112702481D01*
X72514236Y-112509706D01*
X72350294Y-112345764D01*
X72157519Y-112216956D01*
X71943318Y-112128231D01*
X71715924Y-112083000D01*
X71484076Y-112083000D01*
X71256682Y-112128231D01*
X71042481Y-112216956D01*
X70849706Y-112345764D01*
X70685764Y-112509706D01*
X70556956Y-112702481D01*
X70468231Y-112916682D01*
X70423000Y-113144076D01*
X55879600Y-113144076D01*
X55879600Y-109702600D01*
X78308601Y-109702600D01*
X78308600Y-122413054D01*
D38*
G36*
X76111100Y-126492000D02*
G01*
X73396253Y-126492000D01*
X73350200Y-126487464D01*
X72682100Y-126487464D01*
X72682100Y-125642536D01*
X73350200Y-125642536D01*
X73364779Y-125641100D01*
X74930000Y-125641100D01*
X74944866Y-125639636D01*
X74959160Y-125635300D01*
X74972334Y-125628258D01*
X74983882Y-125618782D01*
X74993358Y-125607234D01*
X75000400Y-125594060D01*
X75004736Y-125579766D01*
X75006200Y-125564900D01*
X75006200Y-124968000D01*
X76111100Y-124968000D01*
X76111100Y-126492000D01*
G37*
X76111100Y-126492000D02*
X73396253Y-126492000D01*
X73350200Y-126487464D01*
X72682100Y-126487464D01*
X72682100Y-125642536D01*
X73350200Y-125642536D01*
X73364779Y-125641100D01*
X74930000Y-125641100D01*
X74944866Y-125639636D01*
X74959160Y-125635300D01*
X74972334Y-125628258D01*
X74983882Y-125618782D01*
X74993358Y-125607234D01*
X75000400Y-125594060D01*
X75004736Y-125579766D01*
X75006200Y-125564900D01*
X75006200Y-124968000D01*
X76111100Y-124968000D01*
X76111100Y-126492000D01*
M02*
