G04 #@! TF.GenerationSoftware,KiCad,Pcbnew,5.1.6*
G04 #@! TF.CreationDate,2020-09-08T19:35:49+02:00*
G04 #@! TF.ProjectId,a500_pwr,61353030-5f70-4777-922e-6b696361645f,rev?*
G04 #@! TF.SameCoordinates,Original*
G04 #@! TF.FileFunction,Paste,Top*
G04 #@! TF.FilePolarity,Positive*
%FSLAX46Y46*%
G04 Gerber Fmt 4.6, Leading zero omitted, Abs format (unit mm)*
G04 Created by KiCad (PCBNEW 5.1.6) date 2020-09-08 19:35:49*
%MOMM*%
%LPD*%
G01*
G04 APERTURE LIST*
%ADD10C,0.100000*%
%ADD11R,1.470000X3.000000*%
%ADD12R,1.600000X2.000000*%
%ADD13R,1.060000X1.060000*%
%ADD14R,0.750000X1.200000*%
%ADD15R,3.000000X2.200000*%
%ADD16R,0.750000X0.400000*%
%ADD17R,0.800000X2.999999*%
%ADD18R,1.200000X0.750000*%
%ADD19R,3.500000X1.800000*%
%ADD20R,2.000000X1.600000*%
%ADD21R,1.250000X1.500000*%
G04 APERTURE END LIST*
D10*
G36*
X71975200Y-125997500D02*
G01*
X71975200Y-126732500D01*
X71974300Y-126742100D01*
X71971500Y-126751300D01*
X71966900Y-126759700D01*
X71960800Y-126767100D01*
X71953400Y-126773200D01*
X71945000Y-126777800D01*
X71935800Y-126780600D01*
X71926200Y-126781500D01*
X71324200Y-126781500D01*
X71314600Y-126780600D01*
X71305400Y-126777800D01*
X71297000Y-126773200D01*
X71289600Y-126767100D01*
X71283500Y-126759700D01*
X71278900Y-126751300D01*
X71276100Y-126742100D01*
X71275200Y-126732500D01*
X71275200Y-125997500D01*
X71276100Y-125987900D01*
X71278900Y-125978700D01*
X71283500Y-125970300D01*
X71289600Y-125962900D01*
X71297000Y-125956800D01*
X71305400Y-125952200D01*
X71314600Y-125949400D01*
X71324200Y-125948500D01*
X71926200Y-125948500D01*
X71935800Y-125949400D01*
X71945000Y-125952200D01*
X71953400Y-125956800D01*
X71960800Y-125962900D01*
X71966900Y-125970300D01*
X71971500Y-125978700D01*
X71974300Y-125987900D01*
X71975200Y-125997500D01*
G37*
G36*
X71975200Y-124967500D02*
G01*
X71975200Y-125702500D01*
X71974300Y-125712100D01*
X71971500Y-125721300D01*
X71966900Y-125729700D01*
X71960800Y-125737100D01*
X71953400Y-125743200D01*
X71945000Y-125747800D01*
X71935800Y-125750600D01*
X71926200Y-125751500D01*
X71324200Y-125751500D01*
X71314600Y-125750600D01*
X71305400Y-125747800D01*
X71297000Y-125743200D01*
X71289600Y-125737100D01*
X71283500Y-125729700D01*
X71278900Y-125721300D01*
X71276100Y-125712100D01*
X71275200Y-125702500D01*
X71275200Y-124967500D01*
X71276100Y-124957900D01*
X71278900Y-124948700D01*
X71283500Y-124940300D01*
X71289600Y-124932900D01*
X71297000Y-124926800D01*
X71305400Y-124922200D01*
X71314600Y-124919400D01*
X71324200Y-124918500D01*
X71926200Y-124918500D01*
X71935800Y-124919400D01*
X71945000Y-124922200D01*
X71953400Y-124926800D01*
X71960800Y-124932900D01*
X71966900Y-124940300D01*
X71971500Y-124948700D01*
X71974300Y-124957900D01*
X71975200Y-124967500D01*
G37*
G36*
X71975200Y-127027500D02*
G01*
X71975200Y-127762500D01*
X71974300Y-127772100D01*
X71971500Y-127781300D01*
X71966900Y-127789700D01*
X71960800Y-127797100D01*
X71953400Y-127803200D01*
X71945000Y-127807800D01*
X71935800Y-127810600D01*
X71926200Y-127811500D01*
X71324200Y-127811500D01*
X71314600Y-127810600D01*
X71305400Y-127807800D01*
X71297000Y-127803200D01*
X71289600Y-127797100D01*
X71283500Y-127789700D01*
X71278900Y-127781300D01*
X71276100Y-127772100D01*
X71275200Y-127762500D01*
X71275200Y-127027500D01*
X71276100Y-127017900D01*
X71278900Y-127008700D01*
X71283500Y-127000300D01*
X71289600Y-126992900D01*
X71297000Y-126986800D01*
X71305400Y-126982200D01*
X71314600Y-126979400D01*
X71324200Y-126978500D01*
X71926200Y-126978500D01*
X71935800Y-126979400D01*
X71945000Y-126982200D01*
X71953400Y-126986800D01*
X71960800Y-126992900D01*
X71966900Y-127000300D01*
X71971500Y-127008700D01*
X71974300Y-127017900D01*
X71975200Y-127027500D01*
G37*
D11*
X80951400Y-146500400D03*
X80951400Y-139200400D03*
D12*
X58267600Y-146869400D03*
X58267600Y-150869400D03*
X81610200Y-131324600D03*
X81610200Y-135324600D03*
D13*
X74637800Y-150052000D03*
X74637800Y-147762000D03*
X74637800Y-145472000D03*
X74637800Y-143182000D03*
X74637800Y-140892000D03*
X72347800Y-150052000D03*
X72347800Y-147762000D03*
X72347800Y-145472000D03*
X72347800Y-143182000D03*
X72347800Y-140892000D03*
X70057800Y-150052000D03*
X70057800Y-147762000D03*
X70057800Y-145472000D03*
X70057800Y-143182000D03*
X70057800Y-140892000D03*
X67767800Y-150052000D03*
X67767800Y-147762000D03*
X67767800Y-145472000D03*
X67767800Y-143182000D03*
X67767800Y-140892000D03*
X65477800Y-150052000D03*
X65477800Y-147762000D03*
X65477800Y-145472000D03*
X65477800Y-143182000D03*
X65477800Y-140892000D03*
D14*
X77520800Y-151140200D03*
X77520800Y-149240200D03*
X79222600Y-149240200D03*
X79222600Y-151140200D03*
D15*
X61569600Y-150321600D03*
X61569600Y-144521600D03*
D16*
X72975200Y-127565000D03*
X72975200Y-126965000D03*
X72975200Y-126365000D03*
X72975200Y-125765000D03*
X72975200Y-125165000D03*
X69925200Y-125165000D03*
X69925200Y-125765000D03*
X69925200Y-126365000D03*
X69925200Y-126965000D03*
X69925200Y-127565000D03*
D17*
X71625200Y-126365000D03*
D18*
X70952400Y-129108200D03*
X69052400Y-129108200D03*
D14*
X67106800Y-126959400D03*
X67106800Y-125059400D03*
D19*
X72019800Y-131673600D03*
X67019800Y-131673600D03*
D20*
X78518000Y-127254000D03*
X82518000Y-127254000D03*
X78518000Y-124637800D03*
X82518000Y-124637800D03*
D21*
X75565000Y-128173800D03*
X75565000Y-125673800D03*
D12*
X75565000Y-117913400D03*
X75565000Y-121913400D03*
M02*
