M48
INCH,TZ
T1C0.0157
T2C0.0315
T3C0.0394
T4C0.0429
T5C0.0430
T6C0.0450
T7C0.0630
%
G90
G05
T1
X22640Y-43500
X22675Y-46000
X22675Y-46650
X23800Y-44725
X25640Y-49180
X25640Y-50000
X25640Y-50820
X27130Y-56820
X27130Y-57720
X27555Y-59645
X28030Y-55100
X28030Y-55900
X28030Y-56807
X28030Y-57713
X28030Y-58620
X28455Y-59645
X29175Y-43500
X29250Y-45500
X30190Y-44100
X30190Y-44800
X30190Y-45500
X30600Y-47860
X32110Y-50840
X32810Y-50840
X32870Y-51700
T2
X22922Y-50200
X22940Y-58590
X24120Y-57900
X24120Y-58410
X24300Y-50200
X24645Y-57900
X24645Y-58410
T4
X28189Y-44591
X28189Y-46591
T5
X28189Y-47591
X28189Y-48591
T6
X25220Y-44150
X26200Y-44150
X27180Y-44150
T7
X24320Y-53760
X26340Y-53760
X28360Y-53760
X30380Y-53760
T3
G00X22638Y-44288
M15
G01X22638Y-45155
M16
G05
G00X24055Y-43540
M15
G01X24921Y-43540
M16
G05
G00X24055Y-45903
M15
G01X24921Y-45903
M16
G05
T0
M30
