G04 #@! TF.GenerationSoftware,KiCad,Pcbnew,5.1.5*
G04 #@! TF.CreationDate,2020-04-17T18:27:15+02:00*
G04 #@! TF.ProjectId,a500_pwr,61353030-5f70-4777-922e-6b696361645f,rev?*
G04 #@! TF.SameCoordinates,Original*
G04 #@! TF.FileFunction,Copper,L2,Bot*
G04 #@! TF.FilePolarity,Positive*
%FSLAX46Y46*%
G04 Gerber Fmt 4.6, Leading zero omitted, Abs format (unit mm)*
G04 Created by KiCad (PCBNEW 5.1.5) date 2020-04-17 18:27:15*
%MOMM*%
%LPD*%
G04 APERTURE LIST*
%ADD10C,1.700000*%
%ADD11C,1.600000*%
%ADD12R,1.600000X1.600000*%
%ADD13R,2.286000X2.286000*%
%ADD14C,3.175000*%
%ADD15R,2.000000X2.600000*%
%ADD16R,2.600000X2.000000*%
%ADD17C,0.800000*%
%ADD18C,1.200000*%
%ADD19C,1.905000*%
%ADD20C,0.254000*%
G04 APERTURE END LIST*
D10*
X71600000Y-123420000D03*
X71600000Y-120880000D03*
X71600000Y-118340000D03*
X71600000Y-113260000D03*
D11*
X58222000Y-127508000D03*
D12*
X61722000Y-127508000D03*
D13*
X69037000Y-112141000D03*
X66548000Y-112141000D03*
X64059000Y-112141000D03*
D14*
X77164000Y-136550400D03*
X72034000Y-136550400D03*
X66904000Y-136550400D03*
X61774000Y-136550400D03*
D15*
X57500000Y-113592600D03*
D16*
X62200000Y-116592600D03*
X62200000Y-110592600D03*
D17*
X81559400Y-129133600D03*
X83337400Y-129133600D03*
X68910200Y-144322800D03*
X68910200Y-146608800D03*
X71196200Y-146591866D03*
X71196200Y-144288933D03*
X71196200Y-141986000D03*
X71196200Y-148894800D03*
D18*
X58267600Y-148818600D03*
D17*
X76682600Y-115570000D03*
X76682600Y-112014000D03*
X73202800Y-115570000D03*
X76682600Y-113792000D03*
X66598800Y-118618000D03*
X57505600Y-118719600D03*
X57505600Y-110490000D03*
X83489800Y-131318000D03*
X77724000Y-121564400D03*
X65125600Y-129082800D03*
X65125600Y-127000000D03*
X65125600Y-124917200D03*
D18*
X61264800Y-147066000D03*
X61264800Y-148361400D03*
D19*
X61774000Y-136550400D02*
X61774000Y-146556800D01*
X61774000Y-146556800D02*
X61264800Y-147066000D01*
X61264800Y-147066000D02*
X61264800Y-148158200D01*
D20*
G36*
X78308600Y-122413054D02*
G01*
X78307128Y-122428000D01*
X78313005Y-122487673D01*
X78330411Y-122545052D01*
X78358677Y-122597933D01*
X78396716Y-122644284D01*
X78443067Y-122682323D01*
X78495948Y-122710589D01*
X78553327Y-122727995D01*
X78613000Y-122733872D01*
X78627946Y-122732400D01*
X84023600Y-122732400D01*
X84023601Y-146685913D01*
X81255515Y-149454000D01*
X80380546Y-149454000D01*
X80365600Y-149452528D01*
X80350654Y-149454000D01*
X80305927Y-149458405D01*
X80248548Y-149475811D01*
X80195667Y-149504077D01*
X80149316Y-149542116D01*
X80111277Y-149588467D01*
X80083011Y-149641348D01*
X80065605Y-149698727D01*
X80059728Y-149758400D01*
X80061201Y-149773356D01*
X80061200Y-152095600D01*
X55879600Y-152095600D01*
X55879600Y-146860548D01*
X55881743Y-146858989D01*
X55888961Y-146852718D01*
X56726642Y-146101550D01*
X56738277Y-146089530D01*
X56750284Y-146077880D01*
X56756547Y-146070654D01*
X57480030Y-145208949D01*
X57489853Y-145195412D01*
X57500101Y-145182185D01*
X57505283Y-145174149D01*
X58100133Y-144219101D01*
X58107953Y-144204310D01*
X58116233Y-144189775D01*
X58120231Y-144181089D01*
X58574579Y-143151753D01*
X58580237Y-143136007D01*
X58586386Y-143120452D01*
X58589120Y-143111289D01*
X58893901Y-142028204D01*
X58897285Y-142011816D01*
X58901179Y-141995552D01*
X58902595Y-141986096D01*
X59051728Y-140870873D01*
X59052768Y-140854187D01*
X59054334Y-140837520D01*
X59054403Y-140827958D01*
X59044911Y-139702848D01*
X59043589Y-139686173D01*
X59042791Y-139669461D01*
X59041513Y-139659985D01*
X58873586Y-138547436D01*
X58869929Y-138531124D01*
X58866783Y-138514680D01*
X58864181Y-138505479D01*
X58541171Y-137427691D01*
X58535242Y-137412029D01*
X58529820Y-137396222D01*
X58525949Y-137387478D01*
X58054300Y-136365955D01*
X58052034Y-136361838D01*
X59859500Y-136361838D01*
X59859500Y-136738962D01*
X59933074Y-137108839D01*
X60077393Y-137457256D01*
X60286911Y-137770822D01*
X60494500Y-137978411D01*
X60494501Y-146026813D01*
X60404498Y-146116816D01*
X60355680Y-146156880D01*
X60315618Y-146205696D01*
X60315616Y-146205698D01*
X60220051Y-146322145D01*
X60195788Y-146351710D01*
X60076977Y-146573989D01*
X60003814Y-146815175D01*
X59985300Y-147003152D01*
X59985300Y-147003162D01*
X59979111Y-147066000D01*
X59985300Y-147128838D01*
X59985300Y-148221049D01*
X60003814Y-148409026D01*
X60076977Y-148650212D01*
X60195788Y-148872491D01*
X60355681Y-149067320D01*
X60550510Y-149227212D01*
X60772789Y-149346023D01*
X61013975Y-149419186D01*
X61264800Y-149443890D01*
X61515626Y-149419186D01*
X61756812Y-149346023D01*
X61979091Y-149227212D01*
X62173920Y-149067320D01*
X62333812Y-148872491D01*
X62452623Y-148650212D01*
X62525786Y-148409026D01*
X62544300Y-148221049D01*
X62544300Y-147595985D01*
X62634298Y-147505987D01*
X62683120Y-147465920D01*
X62843012Y-147271091D01*
X62937355Y-147094589D01*
X62961823Y-147048813D01*
X62982110Y-146981934D01*
X63034986Y-146807626D01*
X63053500Y-146619649D01*
X63053500Y-146619646D01*
X63059690Y-146556800D01*
X63053500Y-146493954D01*
X63053500Y-137978411D01*
X63261089Y-137770822D01*
X63470607Y-137457256D01*
X63614926Y-137108839D01*
X63688500Y-136738962D01*
X63688500Y-136361838D01*
X64989500Y-136361838D01*
X64989500Y-136738962D01*
X65063074Y-137108839D01*
X65207393Y-137457256D01*
X65416911Y-137770822D01*
X65683578Y-138037489D01*
X65997144Y-138247007D01*
X66345561Y-138391326D01*
X66715438Y-138464900D01*
X67092562Y-138464900D01*
X67462439Y-138391326D01*
X67810856Y-138247007D01*
X68124422Y-138037489D01*
X68391089Y-137770822D01*
X68600607Y-137457256D01*
X68744926Y-137108839D01*
X68818500Y-136738962D01*
X68818500Y-136361838D01*
X70119500Y-136361838D01*
X70119500Y-136738962D01*
X70193074Y-137108839D01*
X70337393Y-137457256D01*
X70546911Y-137770822D01*
X70813578Y-138037489D01*
X71127144Y-138247007D01*
X71475561Y-138391326D01*
X71845438Y-138464900D01*
X72222562Y-138464900D01*
X72592439Y-138391326D01*
X72940856Y-138247007D01*
X73254422Y-138037489D01*
X73521089Y-137770822D01*
X73730607Y-137457256D01*
X73874926Y-137108839D01*
X73948500Y-136738962D01*
X73948500Y-136361838D01*
X73874926Y-135991961D01*
X73730607Y-135643544D01*
X73521089Y-135329978D01*
X73254422Y-135063311D01*
X72940856Y-134853793D01*
X72592439Y-134709474D01*
X72222562Y-134635900D01*
X71845438Y-134635900D01*
X71475561Y-134709474D01*
X71127144Y-134853793D01*
X70813578Y-135063311D01*
X70546911Y-135329978D01*
X70337393Y-135643544D01*
X70193074Y-135991961D01*
X70119500Y-136361838D01*
X68818500Y-136361838D01*
X68744926Y-135991961D01*
X68600607Y-135643544D01*
X68391089Y-135329978D01*
X68124422Y-135063311D01*
X67810856Y-134853793D01*
X67462439Y-134709474D01*
X67092562Y-134635900D01*
X66715438Y-134635900D01*
X66345561Y-134709474D01*
X65997144Y-134853793D01*
X65683578Y-135063311D01*
X65416911Y-135329978D01*
X65207393Y-135643544D01*
X65063074Y-135991961D01*
X64989500Y-136361838D01*
X63688500Y-136361838D01*
X63614926Y-135991961D01*
X63470607Y-135643544D01*
X63261089Y-135329978D01*
X62994422Y-135063311D01*
X62680856Y-134853793D01*
X62332439Y-134709474D01*
X61962562Y-134635900D01*
X61585438Y-134635900D01*
X61215561Y-134709474D01*
X60867144Y-134853793D01*
X60553578Y-135063311D01*
X60286911Y-135329978D01*
X60077393Y-135643544D01*
X59933074Y-135991961D01*
X59859500Y-136361838D01*
X58052034Y-136361838D01*
X58046228Y-136351293D01*
X58038628Y-136336399D01*
X58033563Y-136328288D01*
X57422684Y-135383412D01*
X57412639Y-135370049D01*
X57403005Y-135356358D01*
X57396848Y-135349042D01*
X56658930Y-134499666D01*
X56647092Y-134487843D01*
X56635635Y-134475656D01*
X56628508Y-134469280D01*
X55883258Y-133823345D01*
X55880974Y-126708000D01*
X60593418Y-126708000D01*
X60593418Y-128308000D01*
X60599732Y-128372103D01*
X60618430Y-128433743D01*
X60648794Y-128490550D01*
X60689657Y-128540343D01*
X60739450Y-128581206D01*
X60796257Y-128611570D01*
X60857897Y-128630268D01*
X60922000Y-128636582D01*
X62522000Y-128636582D01*
X62586103Y-128630268D01*
X62647743Y-128611570D01*
X62704550Y-128581206D01*
X62754343Y-128540343D01*
X62795206Y-128490550D01*
X62825570Y-128433743D01*
X62844268Y-128372103D01*
X62850582Y-128308000D01*
X62850582Y-126708000D01*
X62844268Y-126643897D01*
X62825570Y-126582257D01*
X62795206Y-126525450D01*
X62754343Y-126475657D01*
X62704550Y-126434794D01*
X62647743Y-126404430D01*
X62586103Y-126385732D01*
X62522000Y-126379418D01*
X60922000Y-126379418D01*
X60857897Y-126385732D01*
X60796257Y-126404430D01*
X60739450Y-126434794D01*
X60689657Y-126475657D01*
X60648794Y-126525450D01*
X60618430Y-126582257D01*
X60599732Y-126643897D01*
X60593418Y-126708000D01*
X55880974Y-126708000D01*
X55879882Y-123304076D01*
X70423000Y-123304076D01*
X70423000Y-123535924D01*
X70468231Y-123763318D01*
X70556956Y-123977519D01*
X70685764Y-124170294D01*
X70849706Y-124334236D01*
X71042481Y-124463044D01*
X71256682Y-124551769D01*
X71484076Y-124597000D01*
X71715924Y-124597000D01*
X71943318Y-124551769D01*
X72157519Y-124463044D01*
X72350294Y-124334236D01*
X72514236Y-124170294D01*
X72643044Y-123977519D01*
X72731769Y-123763318D01*
X72777000Y-123535924D01*
X72777000Y-123304076D01*
X72731769Y-123076682D01*
X72643044Y-122862481D01*
X72514236Y-122669706D01*
X72350294Y-122505764D01*
X72157519Y-122376956D01*
X71943318Y-122288231D01*
X71715924Y-122243000D01*
X71484076Y-122243000D01*
X71256682Y-122288231D01*
X71042481Y-122376956D01*
X70849706Y-122505764D01*
X70685764Y-122669706D01*
X70556956Y-122862481D01*
X70468231Y-123076682D01*
X70423000Y-123304076D01*
X55879882Y-123304076D01*
X55879600Y-122428000D01*
X55879600Y-120764076D01*
X70423000Y-120764076D01*
X70423000Y-120995924D01*
X70468231Y-121223318D01*
X70556956Y-121437519D01*
X70685764Y-121630294D01*
X70849706Y-121794236D01*
X71042481Y-121923044D01*
X71256682Y-122011769D01*
X71484076Y-122057000D01*
X71715924Y-122057000D01*
X71943318Y-122011769D01*
X72157519Y-121923044D01*
X72350294Y-121794236D01*
X72514236Y-121630294D01*
X72643044Y-121437519D01*
X72731769Y-121223318D01*
X72777000Y-120995924D01*
X72777000Y-120764076D01*
X72731769Y-120536682D01*
X72643044Y-120322481D01*
X72514236Y-120129706D01*
X72350294Y-119965764D01*
X72157519Y-119836956D01*
X71943318Y-119748231D01*
X71715924Y-119703000D01*
X71484076Y-119703000D01*
X71256682Y-119748231D01*
X71042481Y-119836956D01*
X70849706Y-119965764D01*
X70685764Y-120129706D01*
X70556956Y-120322481D01*
X70468231Y-120536682D01*
X70423000Y-120764076D01*
X55879600Y-120764076D01*
X55879600Y-118224076D01*
X70423000Y-118224076D01*
X70423000Y-118455924D01*
X70468231Y-118683318D01*
X70556956Y-118897519D01*
X70685764Y-119090294D01*
X70849706Y-119254236D01*
X71042481Y-119383044D01*
X71256682Y-119471769D01*
X71484076Y-119517000D01*
X71715924Y-119517000D01*
X71943318Y-119471769D01*
X72157519Y-119383044D01*
X72350294Y-119254236D01*
X72514236Y-119090294D01*
X72643044Y-118897519D01*
X72731769Y-118683318D01*
X72777000Y-118455924D01*
X72777000Y-118224076D01*
X72731769Y-117996682D01*
X72643044Y-117782481D01*
X72514236Y-117589706D01*
X72350294Y-117425764D01*
X72157519Y-117296956D01*
X71943318Y-117208231D01*
X71715924Y-117163000D01*
X71484076Y-117163000D01*
X71256682Y-117208231D01*
X71042481Y-117296956D01*
X70849706Y-117425764D01*
X70685764Y-117589706D01*
X70556956Y-117782481D01*
X70468231Y-117996682D01*
X70423000Y-118224076D01*
X55879600Y-118224076D01*
X55879600Y-115592600D01*
X60571418Y-115592600D01*
X60571418Y-117592600D01*
X60577732Y-117656703D01*
X60596430Y-117718343D01*
X60626794Y-117775150D01*
X60667657Y-117824943D01*
X60717450Y-117865806D01*
X60774257Y-117896170D01*
X60835897Y-117914868D01*
X60900000Y-117921182D01*
X63500000Y-117921182D01*
X63564103Y-117914868D01*
X63625743Y-117896170D01*
X63682550Y-117865806D01*
X63732343Y-117824943D01*
X63773206Y-117775150D01*
X63803570Y-117718343D01*
X63822268Y-117656703D01*
X63828582Y-117592600D01*
X63828582Y-115592600D01*
X63822268Y-115528497D01*
X63803570Y-115466857D01*
X63773206Y-115410050D01*
X63732343Y-115360257D01*
X63682550Y-115319394D01*
X63625743Y-115289030D01*
X63564103Y-115270332D01*
X63500000Y-115264018D01*
X60900000Y-115264018D01*
X60835897Y-115270332D01*
X60774257Y-115289030D01*
X60717450Y-115319394D01*
X60667657Y-115360257D01*
X60626794Y-115410050D01*
X60596430Y-115466857D01*
X60577732Y-115528497D01*
X60571418Y-115592600D01*
X55879600Y-115592600D01*
X55879600Y-113144076D01*
X70423000Y-113144076D01*
X70423000Y-113375924D01*
X70468231Y-113603318D01*
X70556956Y-113817519D01*
X70685764Y-114010294D01*
X70849706Y-114174236D01*
X71042481Y-114303044D01*
X71256682Y-114391769D01*
X71484076Y-114437000D01*
X71715924Y-114437000D01*
X71943318Y-114391769D01*
X72157519Y-114303044D01*
X72350294Y-114174236D01*
X72514236Y-114010294D01*
X72643044Y-113817519D01*
X72731769Y-113603318D01*
X72777000Y-113375924D01*
X72777000Y-113144076D01*
X72731769Y-112916682D01*
X72643044Y-112702481D01*
X72514236Y-112509706D01*
X72350294Y-112345764D01*
X72157519Y-112216956D01*
X71943318Y-112128231D01*
X71715924Y-112083000D01*
X71484076Y-112083000D01*
X71256682Y-112128231D01*
X71042481Y-112216956D01*
X70849706Y-112345764D01*
X70685764Y-112509706D01*
X70556956Y-112702481D01*
X70468231Y-112916682D01*
X70423000Y-113144076D01*
X55879600Y-113144076D01*
X55879600Y-108914800D01*
X78308601Y-108914800D01*
X78308600Y-122413054D01*
G37*
X78308600Y-122413054D02*
X78307128Y-122428000D01*
X78313005Y-122487673D01*
X78330411Y-122545052D01*
X78358677Y-122597933D01*
X78396716Y-122644284D01*
X78443067Y-122682323D01*
X78495948Y-122710589D01*
X78553327Y-122727995D01*
X78613000Y-122733872D01*
X78627946Y-122732400D01*
X84023600Y-122732400D01*
X84023601Y-146685913D01*
X81255515Y-149454000D01*
X80380546Y-149454000D01*
X80365600Y-149452528D01*
X80350654Y-149454000D01*
X80305927Y-149458405D01*
X80248548Y-149475811D01*
X80195667Y-149504077D01*
X80149316Y-149542116D01*
X80111277Y-149588467D01*
X80083011Y-149641348D01*
X80065605Y-149698727D01*
X80059728Y-149758400D01*
X80061201Y-149773356D01*
X80061200Y-152095600D01*
X55879600Y-152095600D01*
X55879600Y-146860548D01*
X55881743Y-146858989D01*
X55888961Y-146852718D01*
X56726642Y-146101550D01*
X56738277Y-146089530D01*
X56750284Y-146077880D01*
X56756547Y-146070654D01*
X57480030Y-145208949D01*
X57489853Y-145195412D01*
X57500101Y-145182185D01*
X57505283Y-145174149D01*
X58100133Y-144219101D01*
X58107953Y-144204310D01*
X58116233Y-144189775D01*
X58120231Y-144181089D01*
X58574579Y-143151753D01*
X58580237Y-143136007D01*
X58586386Y-143120452D01*
X58589120Y-143111289D01*
X58893901Y-142028204D01*
X58897285Y-142011816D01*
X58901179Y-141995552D01*
X58902595Y-141986096D01*
X59051728Y-140870873D01*
X59052768Y-140854187D01*
X59054334Y-140837520D01*
X59054403Y-140827958D01*
X59044911Y-139702848D01*
X59043589Y-139686173D01*
X59042791Y-139669461D01*
X59041513Y-139659985D01*
X58873586Y-138547436D01*
X58869929Y-138531124D01*
X58866783Y-138514680D01*
X58864181Y-138505479D01*
X58541171Y-137427691D01*
X58535242Y-137412029D01*
X58529820Y-137396222D01*
X58525949Y-137387478D01*
X58054300Y-136365955D01*
X58052034Y-136361838D01*
X59859500Y-136361838D01*
X59859500Y-136738962D01*
X59933074Y-137108839D01*
X60077393Y-137457256D01*
X60286911Y-137770822D01*
X60494500Y-137978411D01*
X60494501Y-146026813D01*
X60404498Y-146116816D01*
X60355680Y-146156880D01*
X60315618Y-146205696D01*
X60315616Y-146205698D01*
X60220051Y-146322145D01*
X60195788Y-146351710D01*
X60076977Y-146573989D01*
X60003814Y-146815175D01*
X59985300Y-147003152D01*
X59985300Y-147003162D01*
X59979111Y-147066000D01*
X59985300Y-147128838D01*
X59985300Y-148221049D01*
X60003814Y-148409026D01*
X60076977Y-148650212D01*
X60195788Y-148872491D01*
X60355681Y-149067320D01*
X60550510Y-149227212D01*
X60772789Y-149346023D01*
X61013975Y-149419186D01*
X61264800Y-149443890D01*
X61515626Y-149419186D01*
X61756812Y-149346023D01*
X61979091Y-149227212D01*
X62173920Y-149067320D01*
X62333812Y-148872491D01*
X62452623Y-148650212D01*
X62525786Y-148409026D01*
X62544300Y-148221049D01*
X62544300Y-147595985D01*
X62634298Y-147505987D01*
X62683120Y-147465920D01*
X62843012Y-147271091D01*
X62937355Y-147094589D01*
X62961823Y-147048813D01*
X62982110Y-146981934D01*
X63034986Y-146807626D01*
X63053500Y-146619649D01*
X63053500Y-146619646D01*
X63059690Y-146556800D01*
X63053500Y-146493954D01*
X63053500Y-137978411D01*
X63261089Y-137770822D01*
X63470607Y-137457256D01*
X63614926Y-137108839D01*
X63688500Y-136738962D01*
X63688500Y-136361838D01*
X64989500Y-136361838D01*
X64989500Y-136738962D01*
X65063074Y-137108839D01*
X65207393Y-137457256D01*
X65416911Y-137770822D01*
X65683578Y-138037489D01*
X65997144Y-138247007D01*
X66345561Y-138391326D01*
X66715438Y-138464900D01*
X67092562Y-138464900D01*
X67462439Y-138391326D01*
X67810856Y-138247007D01*
X68124422Y-138037489D01*
X68391089Y-137770822D01*
X68600607Y-137457256D01*
X68744926Y-137108839D01*
X68818500Y-136738962D01*
X68818500Y-136361838D01*
X70119500Y-136361838D01*
X70119500Y-136738962D01*
X70193074Y-137108839D01*
X70337393Y-137457256D01*
X70546911Y-137770822D01*
X70813578Y-138037489D01*
X71127144Y-138247007D01*
X71475561Y-138391326D01*
X71845438Y-138464900D01*
X72222562Y-138464900D01*
X72592439Y-138391326D01*
X72940856Y-138247007D01*
X73254422Y-138037489D01*
X73521089Y-137770822D01*
X73730607Y-137457256D01*
X73874926Y-137108839D01*
X73948500Y-136738962D01*
X73948500Y-136361838D01*
X73874926Y-135991961D01*
X73730607Y-135643544D01*
X73521089Y-135329978D01*
X73254422Y-135063311D01*
X72940856Y-134853793D01*
X72592439Y-134709474D01*
X72222562Y-134635900D01*
X71845438Y-134635900D01*
X71475561Y-134709474D01*
X71127144Y-134853793D01*
X70813578Y-135063311D01*
X70546911Y-135329978D01*
X70337393Y-135643544D01*
X70193074Y-135991961D01*
X70119500Y-136361838D01*
X68818500Y-136361838D01*
X68744926Y-135991961D01*
X68600607Y-135643544D01*
X68391089Y-135329978D01*
X68124422Y-135063311D01*
X67810856Y-134853793D01*
X67462439Y-134709474D01*
X67092562Y-134635900D01*
X66715438Y-134635900D01*
X66345561Y-134709474D01*
X65997144Y-134853793D01*
X65683578Y-135063311D01*
X65416911Y-135329978D01*
X65207393Y-135643544D01*
X65063074Y-135991961D01*
X64989500Y-136361838D01*
X63688500Y-136361838D01*
X63614926Y-135991961D01*
X63470607Y-135643544D01*
X63261089Y-135329978D01*
X62994422Y-135063311D01*
X62680856Y-134853793D01*
X62332439Y-134709474D01*
X61962562Y-134635900D01*
X61585438Y-134635900D01*
X61215561Y-134709474D01*
X60867144Y-134853793D01*
X60553578Y-135063311D01*
X60286911Y-135329978D01*
X60077393Y-135643544D01*
X59933074Y-135991961D01*
X59859500Y-136361838D01*
X58052034Y-136361838D01*
X58046228Y-136351293D01*
X58038628Y-136336399D01*
X58033563Y-136328288D01*
X57422684Y-135383412D01*
X57412639Y-135370049D01*
X57403005Y-135356358D01*
X57396848Y-135349042D01*
X56658930Y-134499666D01*
X56647092Y-134487843D01*
X56635635Y-134475656D01*
X56628508Y-134469280D01*
X55883258Y-133823345D01*
X55880974Y-126708000D01*
X60593418Y-126708000D01*
X60593418Y-128308000D01*
X60599732Y-128372103D01*
X60618430Y-128433743D01*
X60648794Y-128490550D01*
X60689657Y-128540343D01*
X60739450Y-128581206D01*
X60796257Y-128611570D01*
X60857897Y-128630268D01*
X60922000Y-128636582D01*
X62522000Y-128636582D01*
X62586103Y-128630268D01*
X62647743Y-128611570D01*
X62704550Y-128581206D01*
X62754343Y-128540343D01*
X62795206Y-128490550D01*
X62825570Y-128433743D01*
X62844268Y-128372103D01*
X62850582Y-128308000D01*
X62850582Y-126708000D01*
X62844268Y-126643897D01*
X62825570Y-126582257D01*
X62795206Y-126525450D01*
X62754343Y-126475657D01*
X62704550Y-126434794D01*
X62647743Y-126404430D01*
X62586103Y-126385732D01*
X62522000Y-126379418D01*
X60922000Y-126379418D01*
X60857897Y-126385732D01*
X60796257Y-126404430D01*
X60739450Y-126434794D01*
X60689657Y-126475657D01*
X60648794Y-126525450D01*
X60618430Y-126582257D01*
X60599732Y-126643897D01*
X60593418Y-126708000D01*
X55880974Y-126708000D01*
X55879882Y-123304076D01*
X70423000Y-123304076D01*
X70423000Y-123535924D01*
X70468231Y-123763318D01*
X70556956Y-123977519D01*
X70685764Y-124170294D01*
X70849706Y-124334236D01*
X71042481Y-124463044D01*
X71256682Y-124551769D01*
X71484076Y-124597000D01*
X71715924Y-124597000D01*
X71943318Y-124551769D01*
X72157519Y-124463044D01*
X72350294Y-124334236D01*
X72514236Y-124170294D01*
X72643044Y-123977519D01*
X72731769Y-123763318D01*
X72777000Y-123535924D01*
X72777000Y-123304076D01*
X72731769Y-123076682D01*
X72643044Y-122862481D01*
X72514236Y-122669706D01*
X72350294Y-122505764D01*
X72157519Y-122376956D01*
X71943318Y-122288231D01*
X71715924Y-122243000D01*
X71484076Y-122243000D01*
X71256682Y-122288231D01*
X71042481Y-122376956D01*
X70849706Y-122505764D01*
X70685764Y-122669706D01*
X70556956Y-122862481D01*
X70468231Y-123076682D01*
X70423000Y-123304076D01*
X55879882Y-123304076D01*
X55879600Y-122428000D01*
X55879600Y-120764076D01*
X70423000Y-120764076D01*
X70423000Y-120995924D01*
X70468231Y-121223318D01*
X70556956Y-121437519D01*
X70685764Y-121630294D01*
X70849706Y-121794236D01*
X71042481Y-121923044D01*
X71256682Y-122011769D01*
X71484076Y-122057000D01*
X71715924Y-122057000D01*
X71943318Y-122011769D01*
X72157519Y-121923044D01*
X72350294Y-121794236D01*
X72514236Y-121630294D01*
X72643044Y-121437519D01*
X72731769Y-121223318D01*
X72777000Y-120995924D01*
X72777000Y-120764076D01*
X72731769Y-120536682D01*
X72643044Y-120322481D01*
X72514236Y-120129706D01*
X72350294Y-119965764D01*
X72157519Y-119836956D01*
X71943318Y-119748231D01*
X71715924Y-119703000D01*
X71484076Y-119703000D01*
X71256682Y-119748231D01*
X71042481Y-119836956D01*
X70849706Y-119965764D01*
X70685764Y-120129706D01*
X70556956Y-120322481D01*
X70468231Y-120536682D01*
X70423000Y-120764076D01*
X55879600Y-120764076D01*
X55879600Y-118224076D01*
X70423000Y-118224076D01*
X70423000Y-118455924D01*
X70468231Y-118683318D01*
X70556956Y-118897519D01*
X70685764Y-119090294D01*
X70849706Y-119254236D01*
X71042481Y-119383044D01*
X71256682Y-119471769D01*
X71484076Y-119517000D01*
X71715924Y-119517000D01*
X71943318Y-119471769D01*
X72157519Y-119383044D01*
X72350294Y-119254236D01*
X72514236Y-119090294D01*
X72643044Y-118897519D01*
X72731769Y-118683318D01*
X72777000Y-118455924D01*
X72777000Y-118224076D01*
X72731769Y-117996682D01*
X72643044Y-117782481D01*
X72514236Y-117589706D01*
X72350294Y-117425764D01*
X72157519Y-117296956D01*
X71943318Y-117208231D01*
X71715924Y-117163000D01*
X71484076Y-117163000D01*
X71256682Y-117208231D01*
X71042481Y-117296956D01*
X70849706Y-117425764D01*
X70685764Y-117589706D01*
X70556956Y-117782481D01*
X70468231Y-117996682D01*
X70423000Y-118224076D01*
X55879600Y-118224076D01*
X55879600Y-115592600D01*
X60571418Y-115592600D01*
X60571418Y-117592600D01*
X60577732Y-117656703D01*
X60596430Y-117718343D01*
X60626794Y-117775150D01*
X60667657Y-117824943D01*
X60717450Y-117865806D01*
X60774257Y-117896170D01*
X60835897Y-117914868D01*
X60900000Y-117921182D01*
X63500000Y-117921182D01*
X63564103Y-117914868D01*
X63625743Y-117896170D01*
X63682550Y-117865806D01*
X63732343Y-117824943D01*
X63773206Y-117775150D01*
X63803570Y-117718343D01*
X63822268Y-117656703D01*
X63828582Y-117592600D01*
X63828582Y-115592600D01*
X63822268Y-115528497D01*
X63803570Y-115466857D01*
X63773206Y-115410050D01*
X63732343Y-115360257D01*
X63682550Y-115319394D01*
X63625743Y-115289030D01*
X63564103Y-115270332D01*
X63500000Y-115264018D01*
X60900000Y-115264018D01*
X60835897Y-115270332D01*
X60774257Y-115289030D01*
X60717450Y-115319394D01*
X60667657Y-115360257D01*
X60626794Y-115410050D01*
X60596430Y-115466857D01*
X60577732Y-115528497D01*
X60571418Y-115592600D01*
X55879600Y-115592600D01*
X55879600Y-113144076D01*
X70423000Y-113144076D01*
X70423000Y-113375924D01*
X70468231Y-113603318D01*
X70556956Y-113817519D01*
X70685764Y-114010294D01*
X70849706Y-114174236D01*
X71042481Y-114303044D01*
X71256682Y-114391769D01*
X71484076Y-114437000D01*
X71715924Y-114437000D01*
X71943318Y-114391769D01*
X72157519Y-114303044D01*
X72350294Y-114174236D01*
X72514236Y-114010294D01*
X72643044Y-113817519D01*
X72731769Y-113603318D01*
X72777000Y-113375924D01*
X72777000Y-113144076D01*
X72731769Y-112916682D01*
X72643044Y-112702481D01*
X72514236Y-112509706D01*
X72350294Y-112345764D01*
X72157519Y-112216956D01*
X71943318Y-112128231D01*
X71715924Y-112083000D01*
X71484076Y-112083000D01*
X71256682Y-112128231D01*
X71042481Y-112216956D01*
X70849706Y-112345764D01*
X70685764Y-112509706D01*
X70556956Y-112702481D01*
X70468231Y-112916682D01*
X70423000Y-113144076D01*
X55879600Y-113144076D01*
X55879600Y-108914800D01*
X78308601Y-108914800D01*
X78308600Y-122413054D01*
M02*
