G04 #@! TF.GenerationSoftware,KiCad,Pcbnew,5.1.6*
G04 #@! TF.CreationDate,2020-09-08T19:35:49+02:00*
G04 #@! TF.ProjectId,a500_pwr,61353030-5f70-4777-922e-6b696361645f,rev?*
G04 #@! TF.SameCoordinates,Original*
G04 #@! TF.FileFunction,Soldermask,Top*
G04 #@! TF.FilePolarity,Negative*
%FSLAX46Y46*%
G04 Gerber Fmt 4.6, Leading zero omitted, Abs format (unit mm)*
G04 Created by KiCad (PCBNEW 5.1.6) date 2020-09-08 19:35:49*
%MOMM*%
%LPD*%
G01*
G04 APERTURE LIST*
%ADD10C,0.100000*%
G04 APERTURE END LIST*
D10*
G36*
X59118600Y-151920400D02*
G01*
X57416600Y-151920400D01*
X57416600Y-149818400D01*
X59118600Y-149818400D01*
X59118600Y-151920400D01*
G37*
G36*
X79648600Y-151791200D02*
G01*
X78796600Y-151791200D01*
X78796600Y-150489200D01*
X79648600Y-150489200D01*
X79648600Y-151791200D01*
G37*
G36*
X77946800Y-151791200D02*
G01*
X77094800Y-151791200D01*
X77094800Y-150489200D01*
X77946800Y-150489200D01*
X77946800Y-151791200D01*
G37*
G36*
X63120600Y-151472600D02*
G01*
X60018600Y-151472600D01*
X60018600Y-149170600D01*
X63120600Y-149170600D01*
X63120600Y-151472600D01*
G37*
G36*
X72928800Y-150633000D02*
G01*
X71766800Y-150633000D01*
X71766800Y-149471000D01*
X72928800Y-149471000D01*
X72928800Y-150633000D01*
G37*
G36*
X75218800Y-150633000D02*
G01*
X74056800Y-150633000D01*
X74056800Y-149471000D01*
X75218800Y-149471000D01*
X75218800Y-150633000D01*
G37*
G36*
X70638800Y-150633000D02*
G01*
X69476800Y-150633000D01*
X69476800Y-149471000D01*
X70638800Y-149471000D01*
X70638800Y-150633000D01*
G37*
G36*
X68348800Y-150633000D02*
G01*
X67186800Y-150633000D01*
X67186800Y-149471000D01*
X68348800Y-149471000D01*
X68348800Y-150633000D01*
G37*
G36*
X66058800Y-150633000D02*
G01*
X64896800Y-150633000D01*
X64896800Y-149471000D01*
X66058800Y-149471000D01*
X66058800Y-150633000D01*
G37*
G36*
X77946800Y-149891200D02*
G01*
X77094800Y-149891200D01*
X77094800Y-148589200D01*
X77946800Y-148589200D01*
X77946800Y-149891200D01*
G37*
G36*
X79648600Y-149891200D02*
G01*
X78796600Y-149891200D01*
X78796600Y-148589200D01*
X79648600Y-148589200D01*
X79648600Y-149891200D01*
G37*
G36*
X68348800Y-148343000D02*
G01*
X67186800Y-148343000D01*
X67186800Y-147181000D01*
X68348800Y-147181000D01*
X68348800Y-148343000D01*
G37*
G36*
X66058800Y-148343000D02*
G01*
X64896800Y-148343000D01*
X64896800Y-147181000D01*
X66058800Y-147181000D01*
X66058800Y-148343000D01*
G37*
G36*
X70638800Y-148343000D02*
G01*
X69476800Y-148343000D01*
X69476800Y-147181000D01*
X70638800Y-147181000D01*
X70638800Y-148343000D01*
G37*
G36*
X72928800Y-148343000D02*
G01*
X71766800Y-148343000D01*
X71766800Y-147181000D01*
X72928800Y-147181000D01*
X72928800Y-148343000D01*
G37*
G36*
X75218800Y-148343000D02*
G01*
X74056800Y-148343000D01*
X74056800Y-147181000D01*
X75218800Y-147181000D01*
X75218800Y-148343000D01*
G37*
G36*
X81737400Y-148051400D02*
G01*
X80165400Y-148051400D01*
X80165400Y-144949400D01*
X81737400Y-144949400D01*
X81737400Y-148051400D01*
G37*
G36*
X59118600Y-147920400D02*
G01*
X57416600Y-147920400D01*
X57416600Y-145818400D01*
X59118600Y-145818400D01*
X59118600Y-147920400D01*
G37*
G36*
X70638800Y-146053000D02*
G01*
X69476800Y-146053000D01*
X69476800Y-144891000D01*
X70638800Y-144891000D01*
X70638800Y-146053000D01*
G37*
G36*
X72928800Y-146053000D02*
G01*
X71766800Y-146053000D01*
X71766800Y-144891000D01*
X72928800Y-144891000D01*
X72928800Y-146053000D01*
G37*
G36*
X66058800Y-146053000D02*
G01*
X64896800Y-146053000D01*
X64896800Y-144891000D01*
X66058800Y-144891000D01*
X66058800Y-146053000D01*
G37*
G36*
X68348800Y-146053000D02*
G01*
X67186800Y-146053000D01*
X67186800Y-144891000D01*
X68348800Y-144891000D01*
X68348800Y-146053000D01*
G37*
G36*
X75218800Y-146053000D02*
G01*
X74056800Y-146053000D01*
X74056800Y-144891000D01*
X75218800Y-144891000D01*
X75218800Y-146053000D01*
G37*
G36*
X63120600Y-145672600D02*
G01*
X60018600Y-145672600D01*
X60018600Y-143370600D01*
X63120600Y-143370600D01*
X63120600Y-145672600D01*
G37*
G36*
X72928800Y-143763000D02*
G01*
X71766800Y-143763000D01*
X71766800Y-142601000D01*
X72928800Y-142601000D01*
X72928800Y-143763000D01*
G37*
G36*
X75218800Y-143763000D02*
G01*
X74056800Y-143763000D01*
X74056800Y-142601000D01*
X75218800Y-142601000D01*
X75218800Y-143763000D01*
G37*
G36*
X66058800Y-143763000D02*
G01*
X64896800Y-143763000D01*
X64896800Y-142601000D01*
X66058800Y-142601000D01*
X66058800Y-143763000D01*
G37*
G36*
X68348800Y-143763000D02*
G01*
X67186800Y-143763000D01*
X67186800Y-142601000D01*
X68348800Y-142601000D01*
X68348800Y-143763000D01*
G37*
G36*
X70638800Y-143763000D02*
G01*
X69476800Y-143763000D01*
X69476800Y-142601000D01*
X70638800Y-142601000D01*
X70638800Y-143763000D01*
G37*
G36*
X70638800Y-141473000D02*
G01*
X69476800Y-141473000D01*
X69476800Y-140311000D01*
X70638800Y-140311000D01*
X70638800Y-141473000D01*
G37*
G36*
X68348800Y-141473000D02*
G01*
X67186800Y-141473000D01*
X67186800Y-140311000D01*
X68348800Y-140311000D01*
X68348800Y-141473000D01*
G37*
G36*
X72928800Y-141473000D02*
G01*
X71766800Y-141473000D01*
X71766800Y-140311000D01*
X72928800Y-140311000D01*
X72928800Y-141473000D01*
G37*
G36*
X75218800Y-141473000D02*
G01*
X74056800Y-141473000D01*
X74056800Y-140311000D01*
X75218800Y-140311000D01*
X75218800Y-141473000D01*
G37*
G36*
X66058800Y-141473000D02*
G01*
X64896800Y-141473000D01*
X64896800Y-140311000D01*
X66058800Y-140311000D01*
X66058800Y-141473000D01*
G37*
G36*
X81737400Y-140751400D02*
G01*
X80165400Y-140751400D01*
X80165400Y-137649400D01*
X81737400Y-137649400D01*
X81737400Y-140751400D01*
G37*
G36*
X62251932Y-134974866D02*
G01*
X62550119Y-135098379D01*
X62550121Y-135098380D01*
X62818483Y-135277694D01*
X63046706Y-135505917D01*
X63046707Y-135505919D01*
X63226021Y-135774281D01*
X63349534Y-136072468D01*
X63412500Y-136389020D01*
X63412500Y-136711780D01*
X63349534Y-137028332D01*
X63226021Y-137326519D01*
X63226020Y-137326521D01*
X63046706Y-137594883D01*
X62818483Y-137823106D01*
X62550121Y-138002420D01*
X62550120Y-138002421D01*
X62550119Y-138002421D01*
X62251932Y-138125934D01*
X61935380Y-138188900D01*
X61612620Y-138188900D01*
X61296068Y-138125934D01*
X60997881Y-138002421D01*
X60997880Y-138002421D01*
X60997879Y-138002420D01*
X60729517Y-137823106D01*
X60501294Y-137594883D01*
X60321980Y-137326521D01*
X60321979Y-137326519D01*
X60198466Y-137028332D01*
X60135500Y-136711780D01*
X60135500Y-136389020D01*
X60198466Y-136072468D01*
X60321979Y-135774281D01*
X60501293Y-135505919D01*
X60501294Y-135505917D01*
X60729517Y-135277694D01*
X60997879Y-135098380D01*
X60997881Y-135098379D01*
X61296068Y-134974866D01*
X61612620Y-134911900D01*
X61935380Y-134911900D01*
X62251932Y-134974866D01*
G37*
G36*
X77641932Y-134974866D02*
G01*
X77940119Y-135098379D01*
X77940121Y-135098380D01*
X78208483Y-135277694D01*
X78436706Y-135505917D01*
X78436707Y-135505919D01*
X78616021Y-135774281D01*
X78739534Y-136072468D01*
X78802500Y-136389020D01*
X78802500Y-136711780D01*
X78739534Y-137028332D01*
X78616021Y-137326519D01*
X78616020Y-137326521D01*
X78436706Y-137594883D01*
X78208483Y-137823106D01*
X77940121Y-138002420D01*
X77940120Y-138002421D01*
X77940119Y-138002421D01*
X77641932Y-138125934D01*
X77325380Y-138188900D01*
X77002620Y-138188900D01*
X76686068Y-138125934D01*
X76387881Y-138002421D01*
X76387880Y-138002421D01*
X76387879Y-138002420D01*
X76119517Y-137823106D01*
X75891294Y-137594883D01*
X75711980Y-137326521D01*
X75711979Y-137326519D01*
X75588466Y-137028332D01*
X75525500Y-136711780D01*
X75525500Y-136389020D01*
X75588466Y-136072468D01*
X75711979Y-135774281D01*
X75891293Y-135505919D01*
X75891294Y-135505917D01*
X76119517Y-135277694D01*
X76387879Y-135098380D01*
X76387881Y-135098379D01*
X76686068Y-134974866D01*
X77002620Y-134911900D01*
X77325380Y-134911900D01*
X77641932Y-134974866D01*
G37*
G36*
X72511932Y-134974866D02*
G01*
X72810119Y-135098379D01*
X72810121Y-135098380D01*
X73078483Y-135277694D01*
X73306706Y-135505917D01*
X73306707Y-135505919D01*
X73486021Y-135774281D01*
X73609534Y-136072468D01*
X73672500Y-136389020D01*
X73672500Y-136711780D01*
X73609534Y-137028332D01*
X73486021Y-137326519D01*
X73486020Y-137326521D01*
X73306706Y-137594883D01*
X73078483Y-137823106D01*
X72810121Y-138002420D01*
X72810120Y-138002421D01*
X72810119Y-138002421D01*
X72511932Y-138125934D01*
X72195380Y-138188900D01*
X71872620Y-138188900D01*
X71556068Y-138125934D01*
X71257881Y-138002421D01*
X71257880Y-138002421D01*
X71257879Y-138002420D01*
X70989517Y-137823106D01*
X70761294Y-137594883D01*
X70581980Y-137326521D01*
X70581979Y-137326519D01*
X70458466Y-137028332D01*
X70395500Y-136711780D01*
X70395500Y-136389020D01*
X70458466Y-136072468D01*
X70581979Y-135774281D01*
X70761293Y-135505919D01*
X70761294Y-135505917D01*
X70989517Y-135277694D01*
X71257879Y-135098380D01*
X71257881Y-135098379D01*
X71556068Y-134974866D01*
X71872620Y-134911900D01*
X72195380Y-134911900D01*
X72511932Y-134974866D01*
G37*
G36*
X67381932Y-134974866D02*
G01*
X67680119Y-135098379D01*
X67680121Y-135098380D01*
X67948483Y-135277694D01*
X68176706Y-135505917D01*
X68176707Y-135505919D01*
X68356021Y-135774281D01*
X68479534Y-136072468D01*
X68542500Y-136389020D01*
X68542500Y-136711780D01*
X68479534Y-137028332D01*
X68356021Y-137326519D01*
X68356020Y-137326521D01*
X68176706Y-137594883D01*
X67948483Y-137823106D01*
X67680121Y-138002420D01*
X67680120Y-138002421D01*
X67680119Y-138002421D01*
X67381932Y-138125934D01*
X67065380Y-138188900D01*
X66742620Y-138188900D01*
X66426068Y-138125934D01*
X66127881Y-138002421D01*
X66127880Y-138002421D01*
X66127879Y-138002420D01*
X65859517Y-137823106D01*
X65631294Y-137594883D01*
X65451980Y-137326521D01*
X65451979Y-137326519D01*
X65328466Y-137028332D01*
X65265500Y-136711780D01*
X65265500Y-136389020D01*
X65328466Y-136072468D01*
X65451979Y-135774281D01*
X65631293Y-135505919D01*
X65631294Y-135505917D01*
X65859517Y-135277694D01*
X66127879Y-135098380D01*
X66127881Y-135098379D01*
X66426068Y-134974866D01*
X66742620Y-134911900D01*
X67065380Y-134911900D01*
X67381932Y-134974866D01*
G37*
G36*
X82461200Y-136375600D02*
G01*
X80759200Y-136375600D01*
X80759200Y-134273600D01*
X82461200Y-134273600D01*
X82461200Y-136375600D01*
G37*
G36*
X73820800Y-132624600D02*
G01*
X70218800Y-132624600D01*
X70218800Y-130722600D01*
X73820800Y-130722600D01*
X73820800Y-132624600D01*
G37*
G36*
X68820800Y-132624600D02*
G01*
X65218800Y-132624600D01*
X65218800Y-130722600D01*
X68820800Y-130722600D01*
X68820800Y-132624600D01*
G37*
G36*
X82461200Y-132375600D02*
G01*
X80759200Y-132375600D01*
X80759200Y-130273600D01*
X82461200Y-130273600D01*
X82461200Y-132375600D01*
G37*
G36*
X69703400Y-129534200D02*
G01*
X68401400Y-129534200D01*
X68401400Y-128682200D01*
X69703400Y-128682200D01*
X69703400Y-129534200D01*
G37*
G36*
X71603400Y-129534200D02*
G01*
X70301400Y-129534200D01*
X70301400Y-128682200D01*
X71603400Y-128682200D01*
X71603400Y-129534200D01*
G37*
G36*
X76241000Y-128974800D02*
G01*
X74889000Y-128974800D01*
X74889000Y-127372800D01*
X76241000Y-127372800D01*
X76241000Y-128974800D01*
G37*
G36*
X58470228Y-126689703D02*
G01*
X58625100Y-126753853D01*
X58764481Y-126846985D01*
X58883015Y-126965519D01*
X58976147Y-127104900D01*
X59040297Y-127259772D01*
X59073000Y-127424184D01*
X59073000Y-127591816D01*
X59040297Y-127756228D01*
X58976147Y-127911100D01*
X58883015Y-128050481D01*
X58764481Y-128169015D01*
X58625100Y-128262147D01*
X58470228Y-128326297D01*
X58305816Y-128359000D01*
X58138184Y-128359000D01*
X57973772Y-128326297D01*
X57818900Y-128262147D01*
X57679519Y-128169015D01*
X57560985Y-128050481D01*
X57467853Y-127911100D01*
X57403703Y-127756228D01*
X57371000Y-127591816D01*
X57371000Y-127424184D01*
X57403703Y-127259772D01*
X57467853Y-127104900D01*
X57560985Y-126965519D01*
X57679519Y-126846985D01*
X57818900Y-126753853D01*
X57973772Y-126689703D01*
X58138184Y-126657000D01*
X58305816Y-126657000D01*
X58470228Y-126689703D01*
G37*
G36*
X62573000Y-128359000D02*
G01*
X60871000Y-128359000D01*
X60871000Y-126657000D01*
X62573000Y-126657000D01*
X62573000Y-128359000D01*
G37*
G36*
X83569000Y-128105000D02*
G01*
X81467000Y-128105000D01*
X81467000Y-126403000D01*
X83569000Y-126403000D01*
X83569000Y-128105000D01*
G37*
G36*
X79569000Y-128105000D02*
G01*
X77467000Y-128105000D01*
X77467000Y-126403000D01*
X79569000Y-126403000D01*
X79569000Y-128105000D01*
G37*
G36*
X72126800Y-127966599D02*
G01*
X71123600Y-127966599D01*
X71123600Y-124763401D01*
X72126800Y-124763401D01*
X72126800Y-127966599D01*
G37*
G36*
X70401800Y-127866600D02*
G01*
X69448600Y-127866600D01*
X69448600Y-124863400D01*
X70401800Y-124863400D01*
X70401800Y-127866600D01*
G37*
G36*
X73451800Y-127866600D02*
G01*
X72498600Y-127866600D01*
X72498600Y-124863400D01*
X73451800Y-124863400D01*
X73451800Y-127866600D01*
G37*
G36*
X67532800Y-127610400D02*
G01*
X66680800Y-127610400D01*
X66680800Y-126308400D01*
X67532800Y-126308400D01*
X67532800Y-127610400D01*
G37*
G36*
X76241000Y-126474800D02*
G01*
X74889000Y-126474800D01*
X74889000Y-124872800D01*
X76241000Y-124872800D01*
X76241000Y-126474800D01*
G37*
G36*
X67532800Y-125710400D02*
G01*
X66680800Y-125710400D01*
X66680800Y-124408400D01*
X67532800Y-124408400D01*
X67532800Y-125710400D01*
G37*
G36*
X83569000Y-125488800D02*
G01*
X81467000Y-125488800D01*
X81467000Y-123786800D01*
X83569000Y-123786800D01*
X83569000Y-125488800D01*
G37*
G36*
X79569000Y-125488800D02*
G01*
X77467000Y-125488800D01*
X77467000Y-123786800D01*
X79569000Y-123786800D01*
X79569000Y-125488800D01*
G37*
G36*
X71713512Y-122523927D02*
G01*
X71862812Y-122553624D01*
X72026784Y-122621544D01*
X72174354Y-122720147D01*
X72299853Y-122845646D01*
X72398456Y-122993216D01*
X72466376Y-123157188D01*
X72501000Y-123331259D01*
X72501000Y-123508741D01*
X72466376Y-123682812D01*
X72398456Y-123846784D01*
X72299853Y-123994354D01*
X72174354Y-124119853D01*
X72026784Y-124218456D01*
X71862812Y-124286376D01*
X71713512Y-124316073D01*
X71688742Y-124321000D01*
X71511258Y-124321000D01*
X71486488Y-124316073D01*
X71337188Y-124286376D01*
X71173216Y-124218456D01*
X71025646Y-124119853D01*
X70900147Y-123994354D01*
X70801544Y-123846784D01*
X70733624Y-123682812D01*
X70699000Y-123508741D01*
X70699000Y-123331259D01*
X70733624Y-123157188D01*
X70801544Y-122993216D01*
X70900147Y-122845646D01*
X71025646Y-122720147D01*
X71173216Y-122621544D01*
X71337188Y-122553624D01*
X71486488Y-122523927D01*
X71511258Y-122519000D01*
X71688742Y-122519000D01*
X71713512Y-122523927D01*
G37*
G36*
X76416000Y-122964400D02*
G01*
X74714000Y-122964400D01*
X74714000Y-120862400D01*
X76416000Y-120862400D01*
X76416000Y-122964400D01*
G37*
G36*
X71713512Y-119983927D02*
G01*
X71862812Y-120013624D01*
X72026784Y-120081544D01*
X72174354Y-120180147D01*
X72299853Y-120305646D01*
X72398456Y-120453216D01*
X72466376Y-120617188D01*
X72501000Y-120791259D01*
X72501000Y-120968741D01*
X72466376Y-121142812D01*
X72398456Y-121306784D01*
X72299853Y-121454354D01*
X72174354Y-121579853D01*
X72026784Y-121678456D01*
X71862812Y-121746376D01*
X71713512Y-121776073D01*
X71688742Y-121781000D01*
X71511258Y-121781000D01*
X71486488Y-121776073D01*
X71337188Y-121746376D01*
X71173216Y-121678456D01*
X71025646Y-121579853D01*
X70900147Y-121454354D01*
X70801544Y-121306784D01*
X70733624Y-121142812D01*
X70699000Y-120968741D01*
X70699000Y-120791259D01*
X70733624Y-120617188D01*
X70801544Y-120453216D01*
X70900147Y-120305646D01*
X71025646Y-120180147D01*
X71173216Y-120081544D01*
X71337188Y-120013624D01*
X71486488Y-119983927D01*
X71511258Y-119979000D01*
X71688742Y-119979000D01*
X71713512Y-119983927D01*
G37*
G36*
X71713512Y-117443927D02*
G01*
X71862812Y-117473624D01*
X72026784Y-117541544D01*
X72174354Y-117640147D01*
X72299853Y-117765646D01*
X72398456Y-117913216D01*
X72466376Y-118077188D01*
X72501000Y-118251259D01*
X72501000Y-118428741D01*
X72466376Y-118602812D01*
X72398456Y-118766784D01*
X72299853Y-118914354D01*
X72174354Y-119039853D01*
X72026784Y-119138456D01*
X71862812Y-119206376D01*
X71713512Y-119236073D01*
X71688742Y-119241000D01*
X71511258Y-119241000D01*
X71486488Y-119236073D01*
X71337188Y-119206376D01*
X71173216Y-119138456D01*
X71025646Y-119039853D01*
X70900147Y-118914354D01*
X70801544Y-118766784D01*
X70733624Y-118602812D01*
X70699000Y-118428741D01*
X70699000Y-118251259D01*
X70733624Y-118077188D01*
X70801544Y-117913216D01*
X70900147Y-117765646D01*
X71025646Y-117640147D01*
X71173216Y-117541544D01*
X71337188Y-117473624D01*
X71486488Y-117443927D01*
X71511258Y-117439000D01*
X71688742Y-117439000D01*
X71713512Y-117443927D01*
G37*
G36*
X76416000Y-118964400D02*
G01*
X74714000Y-118964400D01*
X74714000Y-116862400D01*
X76416000Y-116862400D01*
X76416000Y-118964400D01*
G37*
G36*
X64351000Y-117643600D02*
G01*
X60049000Y-117643600D01*
X60049000Y-115541600D01*
X64351000Y-115541600D01*
X64351000Y-117643600D01*
G37*
G36*
X58551000Y-115743600D02*
G01*
X56449000Y-115743600D01*
X56449000Y-111441600D01*
X58551000Y-111441600D01*
X58551000Y-115743600D01*
G37*
G36*
X71713512Y-112363927D02*
G01*
X71862812Y-112393624D01*
X72026784Y-112461544D01*
X72174354Y-112560147D01*
X72299853Y-112685646D01*
X72398456Y-112833216D01*
X72466376Y-112997188D01*
X72501000Y-113171259D01*
X72501000Y-113348741D01*
X72466376Y-113522812D01*
X72398456Y-113686784D01*
X72299853Y-113834354D01*
X72174354Y-113959853D01*
X72026784Y-114058456D01*
X71862812Y-114126376D01*
X71713512Y-114156073D01*
X71688742Y-114161000D01*
X71511258Y-114161000D01*
X71486488Y-114156073D01*
X71337188Y-114126376D01*
X71173216Y-114058456D01*
X71025646Y-113959853D01*
X70900147Y-113834354D01*
X70801544Y-113686784D01*
X70733624Y-113522812D01*
X70699000Y-113348741D01*
X70699000Y-113171259D01*
X70733624Y-112997188D01*
X70801544Y-112833216D01*
X70900147Y-112685646D01*
X71025646Y-112560147D01*
X71173216Y-112461544D01*
X71337188Y-112393624D01*
X71486488Y-112363927D01*
X71511258Y-112359000D01*
X71688742Y-112359000D01*
X71713512Y-112363927D01*
G37*
G36*
X64351000Y-110822001D02*
G01*
X64353402Y-110846387D01*
X64360515Y-110869836D01*
X64372066Y-110891447D01*
X64387611Y-110910389D01*
X64406553Y-110925934D01*
X64428164Y-110937485D01*
X64451613Y-110944598D01*
X64475999Y-110947000D01*
X70231000Y-110947000D01*
X70231000Y-113335000D01*
X62865000Y-113335000D01*
X62865000Y-111768599D01*
X62862598Y-111744213D01*
X62855485Y-111720764D01*
X62843934Y-111699153D01*
X62828389Y-111680211D01*
X62809447Y-111664666D01*
X62787836Y-111653115D01*
X62764387Y-111646002D01*
X62740001Y-111643600D01*
X60049000Y-111643600D01*
X60049000Y-109541600D01*
X64351000Y-109541600D01*
X64351000Y-110822001D01*
G37*
M02*
