G04 #@! TF.GenerationSoftware,KiCad,Pcbnew,5.1.5*
G04 #@! TF.CreationDate,2020-05-16T12:58:33+02:00*
G04 #@! TF.ProjectId,a500_pwr,61353030-5f70-4777-922e-6b696361645f,rev?*
G04 #@! TF.SameCoordinates,Original*
G04 #@! TF.FileFunction,Legend,Top*
G04 #@! TF.FilePolarity,Positive*
%FSLAX46Y46*%
G04 Gerber Fmt 4.6, Leading zero omitted, Abs format (unit mm)*
G04 Created by KiCad (PCBNEW 5.1.5) date 2020-05-16 12:58:33*
%MOMM*%
%LPD*%
G04 APERTURE LIST*
%ADD10C,0.203200*%
%ADD11C,0.100000*%
%ADD12C,0.150000*%
%ADD13C,0.120000*%
%ADD14C,0.177800*%
%ADD15C,0.500000*%
G04 APERTURE END LIST*
D10*
X56773961Y-120204895D02*
X56440628Y-119817847D01*
X56202533Y-120204895D02*
X56202533Y-119392095D01*
X56583485Y-119392095D01*
X56678723Y-119430800D01*
X56726342Y-119469504D01*
X56773961Y-119546914D01*
X56773961Y-119663028D01*
X56726342Y-119740438D01*
X56678723Y-119779142D01*
X56583485Y-119817847D01*
X56202533Y-119817847D01*
X57583485Y-120166190D02*
X57488247Y-120204895D01*
X57297771Y-120204895D01*
X57202533Y-120166190D01*
X57154914Y-120088780D01*
X57154914Y-119779142D01*
X57202533Y-119701733D01*
X57297771Y-119663028D01*
X57488247Y-119663028D01*
X57583485Y-119701733D01*
X57631104Y-119779142D01*
X57631104Y-119856552D01*
X57154914Y-119933961D01*
X57964438Y-119663028D02*
X58202533Y-120204895D01*
X58440628Y-119663028D01*
X58821580Y-120127485D02*
X58869200Y-120166190D01*
X58821580Y-120204895D01*
X58773961Y-120166190D01*
X58821580Y-120127485D01*
X58821580Y-120204895D01*
X59964438Y-119392095D02*
X60583485Y-119392095D01*
X60250152Y-119701733D01*
X60393009Y-119701733D01*
X60488247Y-119740438D01*
X60535866Y-119779142D01*
X60583485Y-119856552D01*
X60583485Y-120050076D01*
X60535866Y-120127485D01*
X60488247Y-120166190D01*
X60393009Y-120204895D01*
X60107295Y-120204895D01*
X60012057Y-120166190D01*
X59964438Y-120127485D01*
X56296704Y-121682933D02*
X56772895Y-121682933D01*
X56201466Y-121973219D02*
X56534799Y-120957219D01*
X56868133Y-121973219D01*
X57677657Y-120957219D02*
X57201466Y-120957219D01*
X57153847Y-121441028D01*
X57201466Y-121392647D01*
X57296704Y-121344266D01*
X57534799Y-121344266D01*
X57630038Y-121392647D01*
X57677657Y-121441028D01*
X57725276Y-121537790D01*
X57725276Y-121779695D01*
X57677657Y-121876457D01*
X57630038Y-121924838D01*
X57534799Y-121973219D01*
X57296704Y-121973219D01*
X57201466Y-121924838D01*
X57153847Y-121876457D01*
X58344323Y-120957219D02*
X58439561Y-120957219D01*
X58534799Y-121005600D01*
X58582419Y-121053980D01*
X58630038Y-121150742D01*
X58677657Y-121344266D01*
X58677657Y-121586171D01*
X58630038Y-121779695D01*
X58582419Y-121876457D01*
X58534799Y-121924838D01*
X58439561Y-121973219D01*
X58344323Y-121973219D01*
X58249085Y-121924838D01*
X58201466Y-121876457D01*
X58153847Y-121779695D01*
X58106228Y-121586171D01*
X58106228Y-121344266D01*
X58153847Y-121150742D01*
X58201466Y-121053980D01*
X58249085Y-121005600D01*
X58344323Y-120957219D01*
X59296704Y-120957219D02*
X59391942Y-120957219D01*
X59487180Y-121005600D01*
X59534799Y-121053980D01*
X59582419Y-121150742D01*
X59630038Y-121344266D01*
X59630038Y-121586171D01*
X59582419Y-121779695D01*
X59534799Y-121876457D01*
X59487180Y-121924838D01*
X59391942Y-121973219D01*
X59296704Y-121973219D01*
X59201466Y-121924838D01*
X59153847Y-121876457D01*
X59106228Y-121779695D01*
X59058609Y-121586171D01*
X59058609Y-121344266D01*
X59106228Y-121150742D01*
X59153847Y-121053980D01*
X59201466Y-121005600D01*
X59296704Y-120957219D01*
X60772895Y-121924838D02*
X60868133Y-121973219D01*
X61058609Y-121973219D01*
X61153847Y-121924838D01*
X61201466Y-121828076D01*
X61201466Y-121779695D01*
X61153847Y-121682933D01*
X61058609Y-121634552D01*
X60915752Y-121634552D01*
X60820514Y-121586171D01*
X60772895Y-121489409D01*
X60772895Y-121441028D01*
X60820514Y-121344266D01*
X60915752Y-121295885D01*
X61058609Y-121295885D01*
X61153847Y-121344266D01*
X61630038Y-121973219D02*
X61630038Y-121295885D01*
X61630038Y-120957219D02*
X61582419Y-121005600D01*
X61630038Y-121053980D01*
X61677657Y-121005600D01*
X61630038Y-120957219D01*
X61630038Y-121053980D01*
X62106228Y-121295885D02*
X62106228Y-121973219D01*
X62106228Y-121392647D02*
X62153847Y-121344266D01*
X62249085Y-121295885D01*
X62391942Y-121295885D01*
X62487180Y-121344266D01*
X62534799Y-121441028D01*
X62534799Y-121973219D01*
X63439561Y-121295885D02*
X63439561Y-122118361D01*
X63391942Y-122215123D01*
X63344323Y-122263504D01*
X63249085Y-122311885D01*
X63106228Y-122311885D01*
X63010990Y-122263504D01*
X63439561Y-121924838D02*
X63344323Y-121973219D01*
X63153847Y-121973219D01*
X63058609Y-121924838D01*
X63010990Y-121876457D01*
X62963371Y-121779695D01*
X62963371Y-121489409D01*
X63010990Y-121392647D01*
X63058609Y-121344266D01*
X63153847Y-121295885D01*
X63344323Y-121295885D01*
X63439561Y-121344266D01*
X64058609Y-121973219D02*
X63963371Y-121924838D01*
X63915752Y-121828076D01*
X63915752Y-120957219D01*
X64820514Y-121924838D02*
X64725276Y-121973219D01*
X64534799Y-121973219D01*
X64439561Y-121924838D01*
X64391942Y-121828076D01*
X64391942Y-121441028D01*
X64439561Y-121344266D01*
X64534799Y-121295885D01*
X64725276Y-121295885D01*
X64820514Y-121344266D01*
X64868133Y-121441028D01*
X64868133Y-121537790D01*
X64391942Y-121634552D01*
X66058609Y-121973219D02*
X66058609Y-120957219D01*
X66439561Y-120957219D01*
X66534799Y-121005600D01*
X66582419Y-121053980D01*
X66630038Y-121150742D01*
X66630038Y-121295885D01*
X66582419Y-121392647D01*
X66534799Y-121441028D01*
X66439561Y-121489409D01*
X66058609Y-121489409D01*
X66963371Y-120957219D02*
X67201466Y-121973219D01*
X67391942Y-121247504D01*
X67582419Y-121973219D01*
X67820514Y-120957219D01*
X68772895Y-121973219D02*
X68439561Y-121489409D01*
X68201466Y-121973219D02*
X68201466Y-120957219D01*
X68582419Y-120957219D01*
X68677657Y-121005600D01*
X68725276Y-121053980D01*
X68772895Y-121150742D01*
X68772895Y-121295885D01*
X68725276Y-121392647D01*
X68677657Y-121441028D01*
X68582419Y-121489409D01*
X68201466Y-121489409D01*
D11*
X66800000Y-110092600D02*
X66800000Y-109092600D01*
X57600000Y-110092600D02*
X57600000Y-109092600D01*
X66800000Y-102792600D02*
X66800000Y-103292600D01*
X66800000Y-102792600D02*
X66300000Y-102792600D01*
X57600000Y-102792600D02*
X58100000Y-102792600D01*
X57600000Y-102792600D02*
X57600000Y-103292600D01*
X61000000Y-111792600D02*
X63400000Y-111792600D01*
X57600000Y-117392600D02*
X57600000Y-116892600D01*
X57600000Y-117392600D02*
X58100000Y-117392600D01*
X66800000Y-117392600D02*
X66800000Y-116892600D01*
X66800000Y-117392600D02*
X66300000Y-117392600D01*
D12*
X74140000Y-109246800D02*
X69060000Y-109246800D01*
X74140000Y-118340000D02*
X74140000Y-109246800D01*
X74140000Y-118340000D02*
X72616000Y-118340000D01*
X69060000Y-118340000D02*
X70457000Y-118340000D01*
X69060000Y-109246800D02*
X69060000Y-118340000D01*
D13*
X63322000Y-128158000D02*
X63322000Y-126858000D01*
X63922000Y-127508000D02*
X62722000Y-127508000D01*
X55891000Y-127754000D02*
X55891000Y-127262000D01*
X55931000Y-128106000D02*
X55931000Y-126910000D01*
X55971000Y-128322000D02*
X55971000Y-126694000D01*
X56011000Y-128491000D02*
X56011000Y-126525000D01*
X56051000Y-128635000D02*
X56051000Y-126381000D01*
X56091000Y-128762000D02*
X56091000Y-126254000D01*
X56131000Y-128877000D02*
X56131000Y-126139000D01*
X56171000Y-128981000D02*
X56171000Y-126035000D01*
X56211000Y-129078000D02*
X56211000Y-125938000D01*
X56251000Y-129168000D02*
X56251000Y-125848000D01*
X56291000Y-129253000D02*
X56291000Y-125763000D01*
X56331000Y-129334000D02*
X56331000Y-125682000D01*
X56371000Y-129410000D02*
X56371000Y-125606000D01*
X56411000Y-129482000D02*
X56411000Y-125534000D01*
X56451000Y-129551000D02*
X56451000Y-125465000D01*
X56491000Y-129617000D02*
X56491000Y-125399000D01*
X56531000Y-129681000D02*
X56531000Y-125335000D01*
X56571000Y-129742000D02*
X56571000Y-125274000D01*
X56611000Y-129801000D02*
X56611000Y-125215000D01*
X56651000Y-129857000D02*
X56651000Y-125159000D01*
X56691000Y-129912000D02*
X56691000Y-125104000D01*
X56731000Y-129965000D02*
X56731000Y-125051000D01*
X56771000Y-130016000D02*
X56771000Y-125000000D01*
X56811000Y-130065000D02*
X56811000Y-124951000D01*
X56851000Y-130113000D02*
X56851000Y-124903000D01*
X56891000Y-130160000D02*
X56891000Y-124856000D01*
X56931000Y-130205000D02*
X56931000Y-124811000D01*
X56971000Y-130248000D02*
X56971000Y-124768000D01*
X57011000Y-130291000D02*
X57011000Y-124725000D01*
X57051000Y-130332000D02*
X57051000Y-124684000D01*
X57091000Y-130373000D02*
X57091000Y-124643000D01*
X57131000Y-130412000D02*
X57131000Y-124604000D01*
X57171000Y-130450000D02*
X57171000Y-124566000D01*
X57211000Y-130487000D02*
X57211000Y-124529000D01*
X57251000Y-126528000D02*
X57251000Y-124493000D01*
X57251000Y-130523000D02*
X57251000Y-128488000D01*
X57291000Y-126528000D02*
X57291000Y-124458000D01*
X57291000Y-130558000D02*
X57291000Y-128488000D01*
X57331000Y-126528000D02*
X57331000Y-124424000D01*
X57331000Y-130592000D02*
X57331000Y-128488000D01*
X57371000Y-126528000D02*
X57371000Y-124390000D01*
X57371000Y-130626000D02*
X57371000Y-128488000D01*
X57411000Y-126528000D02*
X57411000Y-124358000D01*
X57411000Y-130658000D02*
X57411000Y-128488000D01*
X57451000Y-126528000D02*
X57451000Y-124326000D01*
X57451000Y-130690000D02*
X57451000Y-128488000D01*
X57491000Y-126528000D02*
X57491000Y-124295000D01*
X57491000Y-130721000D02*
X57491000Y-128488000D01*
X57531000Y-126528000D02*
X57531000Y-124265000D01*
X57531000Y-130751000D02*
X57531000Y-128488000D01*
X57571000Y-126528000D02*
X57571000Y-124236000D01*
X57571000Y-130780000D02*
X57571000Y-128488000D01*
X57611000Y-126528000D02*
X57611000Y-124207000D01*
X57611000Y-130809000D02*
X57611000Y-128488000D01*
X57651000Y-126528000D02*
X57651000Y-124179000D01*
X57651000Y-130837000D02*
X57651000Y-128488000D01*
X57691000Y-126528000D02*
X57691000Y-124152000D01*
X57691000Y-130864000D02*
X57691000Y-128488000D01*
X57731000Y-126528000D02*
X57731000Y-124125000D01*
X57731000Y-130891000D02*
X57731000Y-128488000D01*
X57771000Y-126528000D02*
X57771000Y-124100000D01*
X57771000Y-130916000D02*
X57771000Y-128488000D01*
X57811000Y-126528000D02*
X57811000Y-124074000D01*
X57811000Y-130942000D02*
X57811000Y-128488000D01*
X57851000Y-126528000D02*
X57851000Y-124050000D01*
X57851000Y-130966000D02*
X57851000Y-128488000D01*
X57891000Y-126528000D02*
X57891000Y-124026000D01*
X57891000Y-130990000D02*
X57891000Y-128488000D01*
X57931000Y-126528000D02*
X57931000Y-124003000D01*
X57931000Y-131013000D02*
X57931000Y-128488000D01*
X57971000Y-126528000D02*
X57971000Y-123980000D01*
X57971000Y-131036000D02*
X57971000Y-128488000D01*
X58011000Y-126528000D02*
X58011000Y-123958000D01*
X58011000Y-131058000D02*
X58011000Y-128488000D01*
X58051000Y-126528000D02*
X58051000Y-123936000D01*
X58051000Y-131080000D02*
X58051000Y-128488000D01*
X58091000Y-126528000D02*
X58091000Y-123915000D01*
X58091000Y-131101000D02*
X58091000Y-128488000D01*
X58131000Y-126528000D02*
X58131000Y-123895000D01*
X58131000Y-131121000D02*
X58131000Y-128488000D01*
X58171000Y-126528000D02*
X58171000Y-123875000D01*
X58171000Y-131141000D02*
X58171000Y-128488000D01*
X58211000Y-126528000D02*
X58211000Y-123856000D01*
X58211000Y-131160000D02*
X58211000Y-128488000D01*
X58251000Y-126528000D02*
X58251000Y-123837000D01*
X58251000Y-131179000D02*
X58251000Y-128488000D01*
X58291000Y-126528000D02*
X58291000Y-123818000D01*
X58291000Y-131198000D02*
X58291000Y-128488000D01*
X58331000Y-126528000D02*
X58331000Y-123801000D01*
X58331000Y-131215000D02*
X58331000Y-128488000D01*
X58371000Y-126528000D02*
X58371000Y-123783000D01*
X58371000Y-131233000D02*
X58371000Y-128488000D01*
X58411000Y-126528000D02*
X58411000Y-123767000D01*
X58411000Y-131249000D02*
X58411000Y-128488000D01*
X58451000Y-126528000D02*
X58451000Y-123750000D01*
X58451000Y-131266000D02*
X58451000Y-128488000D01*
X58491000Y-126528000D02*
X58491000Y-123735000D01*
X58491000Y-131281000D02*
X58491000Y-128488000D01*
X58531000Y-126528000D02*
X58531000Y-123719000D01*
X58531000Y-131297000D02*
X58531000Y-128488000D01*
X58571000Y-126528000D02*
X58571000Y-123705000D01*
X58571000Y-131311000D02*
X58571000Y-128488000D01*
X58611000Y-126528000D02*
X58611000Y-123690000D01*
X58611000Y-131326000D02*
X58611000Y-128488000D01*
X58651000Y-126528000D02*
X58651000Y-123676000D01*
X58651000Y-131340000D02*
X58651000Y-128488000D01*
X58691000Y-126528000D02*
X58691000Y-123663000D01*
X58691000Y-131353000D02*
X58691000Y-128488000D01*
X58731000Y-126528000D02*
X58731000Y-123650000D01*
X58731000Y-131366000D02*
X58731000Y-128488000D01*
X58771000Y-126528000D02*
X58771000Y-123638000D01*
X58771000Y-131378000D02*
X58771000Y-128488000D01*
X58811000Y-126528000D02*
X58811000Y-123625000D01*
X58811000Y-131391000D02*
X58811000Y-128488000D01*
X58851000Y-126528000D02*
X58851000Y-123614000D01*
X58851000Y-131402000D02*
X58851000Y-128488000D01*
X58891000Y-126528000D02*
X58891000Y-123603000D01*
X58891000Y-131413000D02*
X58891000Y-128488000D01*
X58931000Y-126528000D02*
X58931000Y-123592000D01*
X58931000Y-131424000D02*
X58931000Y-128488000D01*
X58971000Y-126528000D02*
X58971000Y-123582000D01*
X58971000Y-131434000D02*
X58971000Y-128488000D01*
X59011000Y-126528000D02*
X59011000Y-123572000D01*
X59011000Y-131444000D02*
X59011000Y-128488000D01*
X59051000Y-126528000D02*
X59051000Y-123562000D01*
X59051000Y-131454000D02*
X59051000Y-128488000D01*
X59091000Y-126528000D02*
X59091000Y-123553000D01*
X59091000Y-131463000D02*
X59091000Y-128488000D01*
X59131000Y-126528000D02*
X59131000Y-123545000D01*
X59131000Y-131471000D02*
X59131000Y-128488000D01*
X59171000Y-126528000D02*
X59171000Y-123537000D01*
X59171000Y-131479000D02*
X59171000Y-128488000D01*
X59211000Y-131487000D02*
X59211000Y-123529000D01*
X59251000Y-131495000D02*
X59251000Y-123521000D01*
X59292000Y-131502000D02*
X59292000Y-123514000D01*
X59332000Y-131508000D02*
X59332000Y-123508000D01*
X59372000Y-131514000D02*
X59372000Y-123502000D01*
X59412000Y-131520000D02*
X59412000Y-123496000D01*
X59452000Y-131525000D02*
X59452000Y-123491000D01*
X59492000Y-131530000D02*
X59492000Y-123486000D01*
X59532000Y-131535000D02*
X59532000Y-123481000D01*
X59572000Y-131539000D02*
X59572000Y-123477000D01*
X59612000Y-131543000D02*
X59612000Y-123473000D01*
X59652000Y-131546000D02*
X59652000Y-123470000D01*
X59692000Y-131549000D02*
X59692000Y-123467000D01*
X59732000Y-131551000D02*
X59732000Y-123465000D01*
X59772000Y-131554000D02*
X59772000Y-123462000D01*
X59812000Y-131555000D02*
X59812000Y-123461000D01*
X59852000Y-131557000D02*
X59852000Y-123459000D01*
X59892000Y-131558000D02*
X59892000Y-123458000D01*
X59932000Y-131558000D02*
X59932000Y-123458000D01*
X59972000Y-131558000D02*
X59972000Y-123458000D01*
X64062000Y-127508000D02*
G75*
G03X64062000Y-127508000I-4090000J0D01*
G01*
D12*
X83326400Y-146800400D02*
X83326400Y-139000400D01*
X81824400Y-146800400D02*
X83324400Y-146800400D01*
X78624400Y-146800400D02*
X80024400Y-146800400D01*
X78621400Y-139000400D02*
X78621400Y-146800400D01*
X80024400Y-139000400D02*
X78621400Y-139000400D01*
X83326400Y-139000400D02*
X81824400Y-139000400D01*
D13*
X59287600Y-149869400D02*
X59287600Y-147869400D01*
X57247600Y-147869400D02*
X57247600Y-149869400D01*
X82630200Y-134324600D02*
X82630200Y-132324600D01*
X80590200Y-132324600D02*
X80590200Y-134324600D01*
D12*
X63977800Y-140192000D02*
X64777800Y-139392000D01*
X63957800Y-151572000D02*
X63957800Y-139382000D01*
X63957800Y-139382000D02*
X76157800Y-139382000D01*
X76157800Y-151572000D02*
X76157800Y-139382000D01*
X63957800Y-151572000D02*
X76157800Y-151572000D01*
D13*
X76920800Y-150540200D02*
X76920800Y-149840200D01*
X78120800Y-149840200D02*
X78120800Y-150540200D01*
X79822600Y-149840200D02*
X79822600Y-150540200D01*
X78622600Y-150540200D02*
X78622600Y-149840200D01*
X59839600Y-145621600D02*
X59839600Y-149221600D01*
X63299600Y-149221600D02*
X63299600Y-145621600D01*
D14*
X73350200Y-128040000D02*
X72050200Y-128040000D01*
X69750200Y-128040000D02*
X69550200Y-128040000D01*
X69750200Y-124690000D02*
X69550200Y-124690000D01*
X73350200Y-124690000D02*
X73150200Y-124690000D01*
D11*
X73400200Y-124815000D02*
X73400200Y-127915000D01*
X69500200Y-124815000D02*
X69500200Y-127915000D01*
X73400200Y-127915000D02*
X69500200Y-127915000D01*
X73400200Y-124815000D02*
X69500200Y-124815000D01*
D15*
X72403800Y-127565000D02*
G75*
G03X72403800Y-127565000I-90000J0D01*
G01*
D13*
X70352400Y-129708200D02*
X69652400Y-129708200D01*
X69652400Y-128508200D02*
X70352400Y-128508200D01*
X66506800Y-126359400D02*
X66506800Y-125659400D01*
X67706800Y-125659400D02*
X67706800Y-126359400D01*
X65119800Y-130023600D02*
X72019800Y-130023600D01*
X65119800Y-133323600D02*
X72019800Y-133323600D01*
X65119800Y-130023600D02*
X65119800Y-133323600D01*
X81518000Y-126234000D02*
X79518000Y-126234000D01*
X79518000Y-128274000D02*
X81518000Y-128274000D01*
X81518000Y-123617800D02*
X79518000Y-123617800D01*
X79518000Y-125657800D02*
X81518000Y-125657800D01*
X74715000Y-126423800D02*
X74715000Y-127423800D01*
X76415000Y-127423800D02*
X76415000Y-126423800D01*
X76585000Y-120913400D02*
X76585000Y-118913400D01*
X74545000Y-118913400D02*
X74545000Y-120913400D01*
D10*
X64789066Y-118833295D02*
X64789066Y-119413866D01*
X64741447Y-119529980D01*
X64646209Y-119607390D01*
X64503352Y-119646095D01*
X64408114Y-119646095D01*
X65789066Y-119646095D02*
X65217638Y-119646095D01*
X65503352Y-119646095D02*
X65503352Y-118833295D01*
X65408114Y-118949409D01*
X65312876Y-119026819D01*
X65217638Y-119065523D01*
D12*
X76017961Y-112510533D02*
X76065580Y-112367676D01*
X76065580Y-112129580D01*
X76017961Y-112034342D01*
X75970342Y-111986723D01*
X75875104Y-111939104D01*
X75779866Y-111939104D01*
X75684628Y-111986723D01*
X75637009Y-112034342D01*
X75589390Y-112129580D01*
X75541771Y-112320057D01*
X75494152Y-112415295D01*
X75446533Y-112462914D01*
X75351295Y-112510533D01*
X75256057Y-112510533D01*
X75160819Y-112462914D01*
X75113200Y-112415295D01*
X75065580Y-112320057D01*
X75065580Y-112081961D01*
X75113200Y-111939104D01*
X75065580Y-111605771D02*
X76065580Y-111367676D01*
X75351295Y-111177200D01*
X76065580Y-110986723D01*
X75065580Y-110748628D01*
X76065580Y-109843866D02*
X76065580Y-110415295D01*
X76065580Y-110129580D02*
X75065580Y-110129580D01*
X75208438Y-110224819D01*
X75303676Y-110320057D01*
X75351295Y-110415295D01*
X59805333Y-133175142D02*
X59757714Y-133222761D01*
X59614857Y-133270380D01*
X59519619Y-133270380D01*
X59376761Y-133222761D01*
X59281523Y-133127523D01*
X59233904Y-133032285D01*
X59186285Y-132841809D01*
X59186285Y-132698952D01*
X59233904Y-132508476D01*
X59281523Y-132413238D01*
X59376761Y-132318000D01*
X59519619Y-132270380D01*
X59614857Y-132270380D01*
X59757714Y-132318000D01*
X59805333Y-132365619D01*
X60138666Y-132270380D02*
X60805333Y-132270380D01*
X60376761Y-133270380D01*
D10*
X78091695Y-141263666D02*
X78091695Y-141739857D01*
X77278895Y-141739857D01*
X77356304Y-140977952D02*
X77317600Y-140930333D01*
X77278895Y-140835095D01*
X77278895Y-140597000D01*
X77317600Y-140501761D01*
X77356304Y-140454142D01*
X77433714Y-140406523D01*
X77511123Y-140406523D01*
X77627238Y-140454142D01*
X78091695Y-141025571D01*
X78091695Y-140406523D01*
X56807885Y-149036066D02*
X56846590Y-149083685D01*
X56885295Y-149226542D01*
X56885295Y-149321780D01*
X56846590Y-149464638D01*
X56769180Y-149559876D01*
X56691771Y-149607495D01*
X56536952Y-149655114D01*
X56420838Y-149655114D01*
X56266019Y-149607495D01*
X56188609Y-149559876D01*
X56111200Y-149464638D01*
X56072495Y-149321780D01*
X56072495Y-149226542D01*
X56111200Y-149083685D01*
X56149904Y-149036066D01*
X56072495Y-148131304D02*
X56072495Y-148607495D01*
X56459542Y-148655114D01*
X56420838Y-148607495D01*
X56382133Y-148512257D01*
X56382133Y-148274161D01*
X56420838Y-148178923D01*
X56459542Y-148131304D01*
X56536952Y-148083685D01*
X56730476Y-148083685D01*
X56807885Y-148131304D01*
X56846590Y-148178923D01*
X56885295Y-148274161D01*
X56885295Y-148512257D01*
X56846590Y-148607495D01*
X56807885Y-148655114D01*
X80150485Y-133491266D02*
X80189190Y-133538885D01*
X80227895Y-133681742D01*
X80227895Y-133776980D01*
X80189190Y-133919838D01*
X80111780Y-134015076D01*
X80034371Y-134062695D01*
X79879552Y-134110314D01*
X79763438Y-134110314D01*
X79608619Y-134062695D01*
X79531209Y-134015076D01*
X79453800Y-133919838D01*
X79415095Y-133776980D01*
X79415095Y-133681742D01*
X79453800Y-133538885D01*
X79492504Y-133491266D01*
X79415095Y-132634123D02*
X79415095Y-132824600D01*
X79453800Y-132919838D01*
X79492504Y-132967457D01*
X79608619Y-133062695D01*
X79763438Y-133110314D01*
X80073076Y-133110314D01*
X80150485Y-133062695D01*
X80189190Y-133015076D01*
X80227895Y-132919838D01*
X80227895Y-132729361D01*
X80189190Y-132634123D01*
X80150485Y-132586504D01*
X80073076Y-132538885D01*
X79879552Y-132538885D01*
X79802142Y-132586504D01*
X79763438Y-132634123D01*
X79724733Y-132729361D01*
X79724733Y-132919838D01*
X79763438Y-133015076D01*
X79802142Y-133062695D01*
X79879552Y-133110314D01*
X61747495Y-139331095D02*
X61747495Y-139989076D01*
X61795114Y-140066485D01*
X61842733Y-140105190D01*
X61937971Y-140143895D01*
X62128447Y-140143895D01*
X62223685Y-140105190D01*
X62271304Y-140066485D01*
X62318923Y-139989076D01*
X62318923Y-139331095D01*
X62747495Y-139408504D02*
X62795114Y-139369800D01*
X62890352Y-139331095D01*
X63128447Y-139331095D01*
X63223685Y-139369800D01*
X63271304Y-139408504D01*
X63318923Y-139485914D01*
X63318923Y-139563323D01*
X63271304Y-139679438D01*
X62699876Y-140143895D01*
X63318923Y-140143895D01*
X77913895Y-147461266D02*
X77526847Y-147794600D01*
X77913895Y-148032695D02*
X77101095Y-148032695D01*
X77101095Y-147651742D01*
X77139800Y-147556504D01*
X77178504Y-147508885D01*
X77255914Y-147461266D01*
X77372028Y-147461266D01*
X77449438Y-147508885D01*
X77488142Y-147556504D01*
X77526847Y-147651742D01*
X77526847Y-148032695D01*
X77372028Y-146604123D02*
X77913895Y-146604123D01*
X77062390Y-146842219D02*
X77642961Y-147080314D01*
X77642961Y-146461266D01*
X79285495Y-147410466D02*
X78898447Y-147743800D01*
X79285495Y-147981895D02*
X78472695Y-147981895D01*
X78472695Y-147600942D01*
X78511400Y-147505704D01*
X78550104Y-147458085D01*
X78627514Y-147410466D01*
X78743628Y-147410466D01*
X78821038Y-147458085D01*
X78859742Y-147505704D01*
X78898447Y-147600942D01*
X78898447Y-147981895D01*
X78472695Y-147077133D02*
X78472695Y-146458085D01*
X78782333Y-146791419D01*
X78782333Y-146648561D01*
X78821038Y-146553323D01*
X78859742Y-146505704D01*
X78937152Y-146458085D01*
X79130676Y-146458085D01*
X79208085Y-146505704D01*
X79246790Y-146553323D01*
X79285495Y-146648561D01*
X79285495Y-146934276D01*
X79246790Y-147029514D01*
X79208085Y-147077133D01*
X59168695Y-144489466D02*
X59168695Y-144965657D01*
X58355895Y-144965657D01*
X59168695Y-143632323D02*
X59168695Y-144203752D01*
X59168695Y-143918038D02*
X58355895Y-143918038D01*
X58472009Y-144013276D01*
X58549419Y-144108514D01*
X58588123Y-144203752D01*
X68399066Y-109384495D02*
X68399066Y-109965066D01*
X68351447Y-110081180D01*
X68256209Y-110158590D01*
X68113352Y-110197295D01*
X68018114Y-110197295D01*
X68780019Y-109384495D02*
X69399066Y-109384495D01*
X69065733Y-109694133D01*
X69208590Y-109694133D01*
X69303828Y-109732838D01*
X69351447Y-109771542D01*
X69399066Y-109848952D01*
X69399066Y-110042476D01*
X69351447Y-110119885D01*
X69303828Y-110158590D01*
X69208590Y-110197295D01*
X68922876Y-110197295D01*
X68827638Y-110158590D01*
X68780019Y-110119885D01*
X66914733Y-129501295D02*
X66581400Y-129114247D01*
X66343304Y-129501295D02*
X66343304Y-128688495D01*
X66724257Y-128688495D01*
X66819495Y-128727200D01*
X66867114Y-128765904D01*
X66914733Y-128843314D01*
X66914733Y-128959428D01*
X66867114Y-129036838D01*
X66819495Y-129075542D01*
X66724257Y-129114247D01*
X66343304Y-129114247D01*
X67295685Y-128765904D02*
X67343304Y-128727200D01*
X67438542Y-128688495D01*
X67676638Y-128688495D01*
X67771876Y-128727200D01*
X67819495Y-128765904D01*
X67867114Y-128843314D01*
X67867114Y-128920723D01*
X67819495Y-129036838D01*
X67248066Y-129501295D01*
X67867114Y-129501295D01*
X65035133Y-126351695D02*
X64701800Y-125964647D01*
X64463704Y-126351695D02*
X64463704Y-125538895D01*
X64844657Y-125538895D01*
X64939895Y-125577600D01*
X64987514Y-125616304D01*
X65035133Y-125693714D01*
X65035133Y-125809828D01*
X64987514Y-125887238D01*
X64939895Y-125925942D01*
X64844657Y-125964647D01*
X64463704Y-125964647D01*
X65987514Y-126351695D02*
X65416085Y-126351695D01*
X65701800Y-126351695D02*
X65701800Y-125538895D01*
X65606561Y-125655009D01*
X65511323Y-125732419D01*
X65416085Y-125771123D01*
X58416866Y-135114695D02*
X58416866Y-135695266D01*
X58369247Y-135811380D01*
X58274009Y-135888790D01*
X58131152Y-135927495D01*
X58035914Y-135927495D01*
X58845438Y-135192104D02*
X58893057Y-135153400D01*
X58988295Y-135114695D01*
X59226390Y-135114695D01*
X59321628Y-135153400D01*
X59369247Y-135192104D01*
X59416866Y-135269514D01*
X59416866Y-135346923D01*
X59369247Y-135463038D01*
X58797819Y-135927495D01*
X59416866Y-135927495D01*
X63142904Y-132041295D02*
X63142904Y-131228495D01*
X63381000Y-131228495D01*
X63523857Y-131267200D01*
X63619095Y-131344609D01*
X63666714Y-131422019D01*
X63714333Y-131576838D01*
X63714333Y-131692952D01*
X63666714Y-131847771D01*
X63619095Y-131925180D01*
X63523857Y-132002590D01*
X63381000Y-132041295D01*
X63142904Y-132041295D01*
X64666714Y-132041295D02*
X64095285Y-132041295D01*
X64381000Y-132041295D02*
X64381000Y-131228495D01*
X64285761Y-131344609D01*
X64190523Y-131422019D01*
X64095285Y-131460723D01*
X79030533Y-129474685D02*
X78982914Y-129513390D01*
X78840057Y-129552095D01*
X78744819Y-129552095D01*
X78601961Y-129513390D01*
X78506723Y-129435980D01*
X78459104Y-129358571D01*
X78411485Y-129203752D01*
X78411485Y-129087638D01*
X78459104Y-128932819D01*
X78506723Y-128855409D01*
X78601961Y-128778000D01*
X78744819Y-128739295D01*
X78840057Y-128739295D01*
X78982914Y-128778000D01*
X79030533Y-128816704D01*
X79887676Y-129010228D02*
X79887676Y-129552095D01*
X79649580Y-128700590D02*
X79411485Y-129281161D01*
X80030533Y-129281161D01*
X75576133Y-124293085D02*
X75528514Y-124331790D01*
X75385657Y-124370495D01*
X75290419Y-124370495D01*
X75147561Y-124331790D01*
X75052323Y-124254380D01*
X75004704Y-124176971D01*
X74957085Y-124022152D01*
X74957085Y-123906038D01*
X75004704Y-123751219D01*
X75052323Y-123673809D01*
X75147561Y-123596400D01*
X75290419Y-123557695D01*
X75385657Y-123557695D01*
X75528514Y-123596400D01*
X75576133Y-123635104D01*
X75909466Y-123557695D02*
X76528514Y-123557695D01*
X76195180Y-123867333D01*
X76338038Y-123867333D01*
X76433276Y-123906038D01*
X76480895Y-123944742D01*
X76528514Y-124022152D01*
X76528514Y-124215676D01*
X76480895Y-124293085D01*
X76433276Y-124331790D01*
X76338038Y-124370495D01*
X76052323Y-124370495D01*
X75957085Y-124331790D01*
X75909466Y-124293085D01*
X75855285Y-130367066D02*
X75893990Y-130414685D01*
X75932695Y-130557542D01*
X75932695Y-130652780D01*
X75893990Y-130795638D01*
X75816580Y-130890876D01*
X75739171Y-130938495D01*
X75584352Y-130986114D01*
X75468238Y-130986114D01*
X75313419Y-130938495D01*
X75236009Y-130890876D01*
X75158600Y-130795638D01*
X75119895Y-130652780D01*
X75119895Y-130557542D01*
X75158600Y-130414685D01*
X75197304Y-130367066D01*
X75197304Y-129986114D02*
X75158600Y-129938495D01*
X75119895Y-129843257D01*
X75119895Y-129605161D01*
X75158600Y-129509923D01*
X75197304Y-129462304D01*
X75274714Y-129414685D01*
X75352123Y-129414685D01*
X75468238Y-129462304D01*
X75932695Y-130033733D01*
X75932695Y-129414685D01*
X77861885Y-120003866D02*
X77900590Y-120051485D01*
X77939295Y-120194342D01*
X77939295Y-120289580D01*
X77900590Y-120432438D01*
X77823180Y-120527676D01*
X77745771Y-120575295D01*
X77590952Y-120622914D01*
X77474838Y-120622914D01*
X77320019Y-120575295D01*
X77242609Y-120527676D01*
X77165200Y-120432438D01*
X77126495Y-120289580D01*
X77126495Y-120194342D01*
X77165200Y-120051485D01*
X77203904Y-120003866D01*
X77939295Y-119051485D02*
X77939295Y-119622914D01*
X77939295Y-119337200D02*
X77126495Y-119337200D01*
X77242609Y-119432438D01*
X77320019Y-119527676D01*
X77358723Y-119622914D01*
M02*
