G04 #@! TF.GenerationSoftware,KiCad,Pcbnew,5.1.10*
G04 #@! TF.CreationDate,2021-07-11T12:57:33+02:00*
G04 #@! TF.ProjectId,a500_pwr,61353030-5f70-4777-922e-6b696361645f,rev?*
G04 #@! TF.SameCoordinates,Original*
G04 #@! TF.FileFunction,Soldermask,Bot*
G04 #@! TF.FilePolarity,Negative*
%FSLAX46Y46*%
G04 Gerber Fmt 4.6, Leading zero omitted, Abs format (unit mm)*
G04 Created by KiCad (PCBNEW 5.1.10) date 2021-07-11 12:57:33*
%MOMM*%
%LPD*%
G01*
G04 APERTURE LIST*
%ADD10C,1.802000*%
%ADD11C,1.702000*%
%ADD12C,3.277000*%
%ADD13C,0.100000*%
G04 APERTURE END LIST*
G36*
G01*
X56449000Y-115692600D02*
X56449000Y-111492600D01*
G75*
G02*
X56500000Y-111441600I51000J0D01*
G01*
X58500000Y-111441600D01*
G75*
G02*
X58551000Y-111492600I0J-51000D01*
G01*
X58551000Y-115692600D01*
G75*
G02*
X58500000Y-115743600I-51000J0D01*
G01*
X56500000Y-115743600D01*
G75*
G02*
X56449000Y-115692600I0J51000D01*
G01*
G37*
G36*
G01*
X60049000Y-117592600D02*
X60049000Y-115592600D01*
G75*
G02*
X60100000Y-115541600I51000J0D01*
G01*
X64300000Y-115541600D01*
G75*
G02*
X64351000Y-115592600I0J-51000D01*
G01*
X64351000Y-117592600D01*
G75*
G02*
X64300000Y-117643600I-51000J0D01*
G01*
X60100000Y-117643600D01*
G75*
G02*
X60049000Y-117592600I0J51000D01*
G01*
G37*
G36*
G01*
X60049000Y-111592600D02*
X60049000Y-109592600D01*
G75*
G02*
X60100000Y-109541600I51000J0D01*
G01*
X64300000Y-109541600D01*
G75*
G02*
X64351000Y-109592600I0J-51000D01*
G01*
X64351000Y-111592600D01*
G75*
G02*
X64300000Y-111643600I-51000J0D01*
G01*
X60100000Y-111643600D01*
G75*
G02*
X60049000Y-111592600I0J51000D01*
G01*
G37*
D10*
X71600000Y-123420000D03*
X71600000Y-120880000D03*
X71600000Y-118340000D03*
X71600000Y-113260000D03*
D11*
X58222000Y-127508000D03*
G36*
G01*
X62573000Y-126708000D02*
X62573000Y-128308000D01*
G75*
G02*
X62522000Y-128359000I-51000J0D01*
G01*
X60922000Y-128359000D01*
G75*
G02*
X60871000Y-128308000I0J51000D01*
G01*
X60871000Y-126708000D01*
G75*
G02*
X60922000Y-126657000I51000J0D01*
G01*
X62522000Y-126657000D01*
G75*
G02*
X62573000Y-126708000I0J-51000D01*
G01*
G37*
G36*
G01*
X67843000Y-113284000D02*
X67843000Y-110998000D01*
G75*
G02*
X67894000Y-110947000I51000J0D01*
G01*
X70180000Y-110947000D01*
G75*
G02*
X70231000Y-110998000I0J-51000D01*
G01*
X70231000Y-113284000D01*
G75*
G02*
X70180000Y-113335000I-51000J0D01*
G01*
X67894000Y-113335000D01*
G75*
G02*
X67843000Y-113284000I0J51000D01*
G01*
G37*
G36*
G01*
X65354000Y-113284000D02*
X65354000Y-110998000D01*
G75*
G02*
X65405000Y-110947000I51000J0D01*
G01*
X67691000Y-110947000D01*
G75*
G02*
X67742000Y-110998000I0J-51000D01*
G01*
X67742000Y-113284000D01*
G75*
G02*
X67691000Y-113335000I-51000J0D01*
G01*
X65405000Y-113335000D01*
G75*
G02*
X65354000Y-113284000I0J51000D01*
G01*
G37*
G36*
G01*
X62865000Y-113284000D02*
X62865000Y-110998000D01*
G75*
G02*
X62916000Y-110947000I51000J0D01*
G01*
X65202000Y-110947000D01*
G75*
G02*
X65253000Y-110998000I0J-51000D01*
G01*
X65253000Y-113284000D01*
G75*
G02*
X65202000Y-113335000I-51000J0D01*
G01*
X62916000Y-113335000D01*
G75*
G02*
X62865000Y-113284000I0J51000D01*
G01*
G37*
D12*
X77164000Y-136550400D03*
X72034000Y-136550400D03*
X66904000Y-136550400D03*
X61774000Y-136550400D03*
D13*
G36*
X67844732Y-110946000D02*
G01*
X67845000Y-110947000D01*
X67845000Y-113335000D01*
X67844000Y-113336732D01*
X67843000Y-113337000D01*
X67742000Y-113337000D01*
X67740268Y-113336000D01*
X67740000Y-113335000D01*
X67740000Y-110947000D01*
X67741000Y-110945268D01*
X67742000Y-110945000D01*
X67843000Y-110945000D01*
X67844732Y-110946000D01*
G37*
G36*
X65355732Y-110946000D02*
G01*
X65356000Y-110947000D01*
X65356000Y-113335000D01*
X65355000Y-113336732D01*
X65354000Y-113337000D01*
X65253000Y-113337000D01*
X65251268Y-113336000D01*
X65251000Y-113335000D01*
X65251000Y-110947000D01*
X65252000Y-110945268D01*
X65253000Y-110945000D01*
X65354000Y-110945000D01*
X65355732Y-110946000D01*
G37*
M02*
